<svg xmlns="http://www.w3.org/2000/svg" viewBox="0 0 1280 480" width="1280" height="480" role="img" aria-label="accountable-surface: Lets an AI agent take only the actions a person has approved. Lines arrive from one side at a toothed ring around a bright core; most pass through and a few stop at the ring with a short cross mark."><title>accountable-surface: Lets an AI agent take only the actions a person has approved.</title><desc>Lines arrive from one side at a toothed ring around a bright core; most pass through and a few stop at the ring with a short cross mark.</desc><defs><radialGradient id="ra-accountable-surface-hd-halo" r="50%"><stop offset="0" stop-color="#ffab52" stop-opacity="0.34"/><stop offset="0.35" stop-color="#ffab52" stop-opacity="0.1"/><stop offset="1" stop-color="#ffab52" stop-opacity="0"/></radialGradient><radialGradient id="ra-accountable-surface-hd-core"><stop offset="0" stop-color="#fff7e8"/><stop offset="0.45" stop-color="#fff7e8" stop-opacity="0.96"/><stop offset="0.72" stop-color="#ffd592" stop-opacity="0.55"/><stop offset="1" stop-color="#ffab52" stop-opacity="0"/></radialGradient><linearGradient id="ra-accountable-surface-hd-veil" x1="0" y1="0" x2="1" y2="0"><stop offset="0.38" stop-color="#040405" stop-opacity="0.94"/><stop offset="0.59" stop-color="#040405" stop-opacity="0"/></linearGradient><filter id="ra-accountable-surface-hd-grain" x="0" y="0" width="100%" height="100%"><feTurbulence type="fractalNoise" baseFrequency="0.8" numOctaves="2" seed="9087"/><feColorMatrix values="0 0 0 0 1  0 0 0 0 1  0 0 0 0 1  0 0 0 2.4 -1.3"/></filter><pattern id="ra-accountable-surface-hd-scan" width="6" height="3" patternUnits="userSpaceOnUse"><rect width="6" height="1" fill="#040405"/></pattern></defs><rect width="1280" height="480" fill="#040405"/><circle cx="934.4" cy="220.8" r="66.53" fill="none" stroke="#e6e1d6" stroke-width="0.79" opacity="0.7"/><line x1="1000.93" y1="220.8" x2="1007.26" y2="220.8" stroke="#e6e1d6" stroke-width="0.79" stroke-opacity="0.6" stroke-linecap="round"/><line x1="999.92" y1="232.35" x2="1006.16" y2="233.45" stroke="#e6e1d6" stroke-width="0.79" stroke-opacity="0.6" stroke-linecap="round"/><line x1="996.92" y1="243.55" x2="1002.87" y2="245.72" stroke="#e6e1d6" stroke-width="0.79" stroke-opacity="0.6" stroke-linecap="round"/><line x1="992.01" y1="254.06" x2="997.5" y2="257.23" stroke="#e6e1d6" stroke-width="0.79" stroke-opacity="0.6" stroke-linecap="round"/><line x1="985.36" y1="263.56" x2="990.22" y2="267.64" stroke="#e6e1d6" stroke-width="0.79" stroke-opacity="0.6" stroke-linecap="round"/><line x1="977.16" y1="271.76" x2="981.24" y2="276.62" stroke="#e6e1d6" stroke-width="0.79" stroke-opacity="0.6" stroke-linecap="round"/><line x1="967.66" y1="278.41" x2="970.83" y2="283.9" stroke="#e6e1d6" stroke-width="0.79" stroke-opacity="0.6" stroke-linecap="round"/><line x1="957.15" y1="283.32" x2="959.32" y2="289.27" stroke="#e6e1d6" stroke-width="0.79" stroke-opacity="0.6" stroke-linecap="round"/><line x1="945.95" y1="286.32" x2="947.05" y2="292.56" stroke="#e6e1d6" stroke-width="0.79" stroke-opacity="0.6" stroke-linecap="round"/><line x1="934.4" y1="287.33" x2="934.4" y2="293.66" stroke="#e6e1d6" stroke-width="0.79" stroke-opacity="0.6" stroke-linecap="round"/><line x1="922.85" y1="286.32" x2="921.75" y2="292.56" stroke="#e6e1d6" stroke-width="0.79" stroke-opacity="0.6" stroke-linecap="round"/><line x1="911.65" y1="283.32" x2="909.48" y2="289.27" stroke="#e6e1d6" stroke-width="0.79" stroke-opacity="0.6" stroke-linecap="round"/><line x1="901.14" y1="278.41" x2="897.97" y2="283.9" stroke="#e6e1d6" stroke-width="0.79" stroke-opacity="0.6" stroke-linecap="round"/><line x1="891.64" y1="271.76" x2="887.56" y2="276.62" stroke="#e6e1d6" stroke-width="0.79" stroke-opacity="0.6" stroke-linecap="round"/><line x1="883.44" y1="263.56" x2="878.58" y2="267.64" stroke="#e6e1d6" stroke-width="0.79" stroke-opacity="0.6" stroke-linecap="round"/><line x1="876.79" y1="254.06" x2="871.3" y2="257.23" stroke="#e6e1d6" stroke-width="0.79" stroke-opacity="0.6" stroke-linecap="round"/><line x1="871.88" y1="243.55" x2="865.93" y2="245.72" stroke="#e6e1d6" stroke-width="0.79" stroke-opacity="0.6" stroke-linecap="round"/><line x1="868.88" y1="232.35" x2="862.64" y2="233.45" stroke="#e6e1d6" stroke-width="0.79" stroke-opacity="0.6" stroke-linecap="round"/><line x1="867.87" y1="220.8" x2="861.54" y2="220.8" stroke="#e6e1d6" stroke-width="0.79" stroke-opacity="0.6" stroke-linecap="round"/><line x1="868.88" y1="209.25" x2="862.64" y2="208.15" stroke="#e6e1d6" stroke-width="0.79" stroke-opacity="0.6" stroke-linecap="round"/><line x1="871.88" y1="198.05" x2="865.93" y2="195.88" stroke="#e6e1d6" stroke-width="0.79" stroke-opacity="0.6" stroke-linecap="round"/><line x1="876.79" y1="187.54" x2="871.3" y2="184.37" stroke="#e6e1d6" stroke-width="0.79" stroke-opacity="0.6" stroke-linecap="round"/><line x1="883.44" y1="178.04" x2="878.58" y2="173.96" stroke="#e6e1d6" stroke-width="0.79" stroke-opacity="0.6" stroke-linecap="round"/><line x1="891.64" y1="169.84" x2="887.56" y2="164.98" stroke="#e6e1d6" stroke-width="0.79" stroke-opacity="0.6" stroke-linecap="round"/><line x1="901.14" y1="163.19" x2="897.97" y2="157.7" stroke="#e6e1d6" stroke-width="0.79" stroke-opacity="0.6" stroke-linecap="round"/><line x1="911.65" y1="158.28" x2="909.48" y2="152.33" stroke="#e6e1d6" stroke-width="0.79" stroke-opacity="0.6" stroke-linecap="round"/><line x1="922.85" y1="155.28" x2="921.75" y2="149.04" stroke="#e6e1d6" stroke-width="0.79" stroke-opacity="0.6" stroke-linecap="round"/><line x1="934.4" y1="154.27" x2="934.4" y2="147.94" stroke="#e6e1d6" stroke-width="0.79" stroke-opacity="0.6" stroke-linecap="round"/><line x1="945.95" y1="155.28" x2="947.05" y2="149.04" stroke="#e6e1d6" stroke-width="0.79" stroke-opacity="0.6" stroke-linecap="round"/><line x1="957.15" y1="158.28" x2="959.32" y2="152.33" stroke="#e6e1d6" stroke-width="0.79" stroke-opacity="0.6" stroke-linecap="round"/><line x1="967.66" y1="163.19" x2="970.83" y2="157.7" stroke="#e6e1d6" stroke-width="0.79" stroke-opacity="0.6" stroke-linecap="round"/><line x1="977.16" y1="169.84" x2="981.24" y2="164.98" stroke="#e6e1d6" stroke-width="0.79" stroke-opacity="0.6" stroke-linecap="round"/><line x1="985.36" y1="178.04" x2="990.22" y2="173.96" stroke="#e6e1d6" stroke-width="0.79" stroke-opacity="0.6" stroke-linecap="round"/><line x1="992.01" y1="187.54" x2="997.5" y2="184.37" stroke="#e6e1d6" stroke-width="0.79" stroke-opacity="0.6" stroke-linecap="round"/><line x1="996.92" y1="198.05" x2="1002.87" y2="195.88" stroke="#e6e1d6" stroke-width="0.79" stroke-opacity="0.6" stroke-linecap="round"/><line x1="999.92" y1="209.25" x2="1006.16" y2="208.15" stroke="#e6e1d6" stroke-width="0.79" stroke-opacity="0.6" stroke-linecap="round"/><line x1="1165.24" y1="164.54" x2="1006.55" y2="202.44" stroke="#e6e1d6" stroke-width="0.6" stroke-opacity="0.4" stroke-linecap="round"/><line x1="998.87" y1="204.39" x2="934.4" y2="220.8" stroke="#e6e1d6" stroke-width="0.6" stroke-opacity="0.45" stroke-linecap="round"/><line x1="1168.26" y1="178.82" x2="1007.48" y2="206.59" stroke="#e6e1d6" stroke-width="0.6" stroke-opacity="0.4" stroke-linecap="round"/><line x1="999.7" y1="208.1" x2="934.4" y2="220.8" stroke="#e6e1d6" stroke-width="0.6" stroke-opacity="0.45" stroke-linecap="round"/><line x1="1169.11" y1="183.84" x2="1008.17" y2="210.79" stroke="#e6e1d6" stroke-width="0.6" stroke-opacity="0.4" stroke-linecap="round"/><line x1="1000.32" y1="211.85" x2="934.4" y2="220.8" stroke="#e6e1d6" stroke-width="0.6" stroke-opacity="0.45" stroke-linecap="round"/><line x1="1170.57" y1="194.77" x2="1008.62" y2="215.02" stroke="#e6e1d6" stroke-width="0.6" stroke-opacity="0.4" stroke-linecap="round"/><line x1="1000.73" y1="215.63" x2="934.4" y2="220.8" stroke="#e6e1d6" stroke-width="0.6" stroke-opacity="0.45" stroke-linecap="round"/><line x1="1171.77" y1="231.27" x2="1008.83" y2="219.26" stroke="#e6e1d6" stroke-width="0.6" stroke-opacity="0.4" stroke-linecap="round"/><line x1="1000.91" y1="219.43" x2="934.4" y2="220.8" stroke="#e6e1d6" stroke-width="0.6" stroke-opacity="0.45" stroke-linecap="round"/><line x1="1171.97" y1="216.88" x2="1008.8" y2="223.52" stroke="#e6e1d6" stroke-width="0.6" stroke-opacity="0.4" stroke-linecap="round"/><line x1="1000.88" y1="223.23" x2="934.4" y2="220.8" stroke="#e6e1d6" stroke-width="0.6" stroke-opacity="0.45" stroke-linecap="round"/><line x1="1170.58" y1="246.77" x2="1008.52" y2="227.76" stroke="#e6e1d6" stroke-width="0.6" stroke-opacity="0.4" stroke-linecap="round"/><line x1="1000.64" y1="227.02" x2="934.4" y2="220.8" stroke="#e6e1d6" stroke-width="0.6" stroke-opacity="0.45" stroke-linecap="round"/><line x1="1171.34" y1="238.43" x2="1008" y2="231.98" stroke="#e6e1d6" stroke-width="0.6" stroke-opacity="0.4" stroke-linecap="round"/><line x1="1000.17" y1="230.79" x2="934.4" y2="220.8" stroke="#e6e1d6" stroke-width="0.6" stroke-opacity="0.45" stroke-linecap="round"/><line x1="1168.7" y1="260.24" x2="1007.24" y2="236.17" stroke="#e6e1d6" stroke-width="0.6" stroke-opacity="0.4" stroke-linecap="round"/><line x1="1008.72" y1="229.2" x2="1005.77" y2="243.14" stroke="#e6e1d6" stroke-width="1.27" stroke-opacity="1" stroke-linecap="round"/><line x1="1164.7" y1="279.24" x2="1006.25" y2="240.31" stroke="#e6e1d6" stroke-width="0.6" stroke-opacity="0.4" stroke-linecap="round"/><line x1="998.6" y1="238.23" x2="934.4" y2="220.8" stroke="#e6e1d6" stroke-width="0.6" stroke-opacity="0.45" stroke-linecap="round"/><line x1="1161.53" y1="290.54" x2="1005.02" y2="244.38" stroke="#e6e1d6" stroke-width="0.6" stroke-opacity="0.4" stroke-linecap="round"/><line x1="997.5" y1="241.87" x2="934.4" y2="220.8" stroke="#e6e1d6" stroke-width="0.6" stroke-opacity="0.45" stroke-linecap="round"/><line x1="1155.93" y1="306.69" x2="1003.55" y2="248.37" stroke="#e6e1d6" stroke-width="0.6" stroke-opacity="0.4" stroke-linecap="round"/><line x1="996.2" y1="245.44" x2="934.4" y2="220.8" stroke="#e6e1d6" stroke-width="0.6" stroke-opacity="0.45" stroke-linecap="round"/><line x1="1144.82" y1="331.16" x2="1001.87" y2="252.28" stroke="#e6e1d6" stroke-width="0.6" stroke-opacity="0.4" stroke-linecap="round"/><line x1="994.69" y1="248.93" x2="934.4" y2="220.8" stroke="#e6e1d6" stroke-width="0.6" stroke-opacity="0.45" stroke-linecap="round"/><line x1="1148.76" y1="323.29" x2="999.96" y2="256.08" stroke="#e6e1d6" stroke-width="0.6" stroke-opacity="0.4" stroke-linecap="round"/><line x1="992.98" y1="252.32" x2="934.4" y2="220.8" stroke="#e6e1d6" stroke-width="0.6" stroke-opacity="0.45" stroke-linecap="round"/><line x1="1137.33" y1="344.39" x2="997.84" y2="259.76" stroke="#e6e1d6" stroke-width="0.6" stroke-opacity="0.4" stroke-linecap="round"/><line x1="1001.57" y1="253.69" x2="994.11" y2="265.84" stroke="#e6e1d6" stroke-width="1.27" stroke-opacity="1" stroke-linecap="round"/><line x1="1120.28" y1="368.8" x2="995.51" y2="263.32" stroke="#e6e1d6" stroke-width="0.6" stroke-opacity="0.4" stroke-linecap="round"/><line x1="989.01" y1="258.8" x2="934.4" y2="220.8" stroke="#e6e1d6" stroke-width="0.6" stroke-opacity="0.45" stroke-linecap="round"/><line x1="1121.82" y1="366.84" x2="992.98" y2="266.74" stroke="#e6e1d6" stroke-width="0.6" stroke-opacity="0.4" stroke-linecap="round"/><line x1="986.75" y1="261.86" x2="934.4" y2="220.8" stroke="#e6e1d6" stroke-width="0.6" stroke-opacity="0.45" stroke-linecap="round"/><line x1="1117.77" y1="371.89" x2="990.26" y2="270.01" stroke="#e6e1d6" stroke-width="0.6" stroke-opacity="0.4" stroke-linecap="round"/><line x1="984.32" y1="264.78" x2="934.4" y2="220.8" stroke="#e6e1d6" stroke-width="0.6" stroke-opacity="0.45" stroke-linecap="round"/><line x1="1111.78" y1="378.88" x2="987.36" y2="273.12" stroke="#e6e1d6" stroke-width="0.6" stroke-opacity="0.4" stroke-linecap="round"/><line x1="981.72" y1="267.56" x2="934.4" y2="220.8" stroke="#e6e1d6" stroke-width="0.6" stroke-opacity="0.45" stroke-linecap="round"/><line x1="1095.42" y1="395.52" x2="984.28" y2="276.06" stroke="#e6e1d6" stroke-width="0.6" stroke-opacity="0.4" stroke-linecap="round"/><line x1="978.98" y1="270.18" x2="934.4" y2="220.8" stroke="#e6e1d6" stroke-width="0.6" stroke-opacity="0.45" stroke-linecap="round"/><line x1="1081.92" y1="407.05" x2="981.05" y2="278.82" stroke="#e6e1d6" stroke-width="0.6" stroke-opacity="0.4" stroke-linecap="round"/><line x1="976.08" y1="272.65" x2="934.4" y2="220.8" stroke="#e6e1d6" stroke-width="0.6" stroke-opacity="0.45" stroke-linecap="round"/><line x1="1072.22" y1="414.34" x2="977.66" y2="281.39" stroke="#e6e1d6" stroke-width="0.6" stroke-opacity="0.4" stroke-linecap="round"/><line x1="973.05" y1="274.95" x2="934.4" y2="220.8" stroke="#e6e1d6" stroke-width="0.6" stroke-opacity="0.45" stroke-linecap="round"/><circle cx="934.4" cy="220.8" r="77.62" fill="url(#ra-accountable-surface-hd-halo)"/><circle cx="934.4" cy="220.8" r="17.74" fill="url(#ra-accountable-surface-hd-core)"/><rect width="1280" height="480" fill="url(#ra-accountable-surface-hd-veil)"/><rect width="1280" height="480" fill="url(#ra-accountable-surface-hd-scan)" opacity="0.14"/><rect width="1280" height="480" filter="url(#ra-accountable-surface-hd-grain)" opacity="0.06"/><path fill="#e6e1d6" d="M95.75 179.22 95.25 174.07V159.94Q95.25 156.96 93.45 155.44Q91.65 153.92 88.43 153.92Q85.95 153.92 83.56 154.88Q81.18 155.85 79.19 157.83L75.35 153.3Q78.32 150.51 81.67 149.31Q85.02 148.1 88.99 148.1Q95.19 148.1 98.63 151.23Q102.07 154.36 102.07 159.94V179.22ZM86.26 179.78Q82.85 179.78 80.22 178.54Q77.58 177.3 76.12 175.07Q74.67 172.83 74.67 169.86Q74.67 167.32 75.75 165.46Q76.84 163.6 78.57 162.54Q80.06 161.61 82.04 161.21Q84.03 160.81 86.2 160.81H95.81V165.95H87.19Q86.07 165.95 84.96 166.17Q83.84 166.39 82.97 166.94Q82.35 167.44 81.95 168.18Q81.55 168.93 81.55 169.92Q81.55 171.9 83.07 173.05Q84.59 174.2 87.13 174.2Q89.36 174.2 91.19 173.21Q93.02 172.21 94.13 170.48Q95.25 168.74 95.25 166.57L97.36 169.98Q96.61 173.21 95 175.41Q93.39 177.61 91.16 178.69Q88.93 179.78 86.26 179.78ZM121.41 179.78Q117.82 179.78 115.06 178.51Q112.3 177.24 110.47 174.97Q108.64 172.71 107.71 169.86Q106.78 167.01 106.78 163.91Q106.78 160.81 107.71 157.95Q108.64 155.1 110.47 152.87Q112.3 150.64 115.06 149.37Q117.82 148.1 121.41 148.1Q125.94 148.1 129.32 150.27Q132.7 152.44 134.31 156.96L128.23 159.32Q127.49 156.96 125.82 155.5Q124.14 154.05 121.41 154.05Q118.69 154.05 116.98 155.47Q115.28 156.9 114.47 159.13Q113.66 161.36 113.66 163.91Q113.66 166.45 114.47 168.71Q115.28 170.97 116.98 172.37Q118.69 173.76 121.41 173.76Q124.14 173.76 125.82 172.34Q127.49 170.91 128.23 168.56L134.31 170.91Q132.7 175.38 129.32 177.58Q125.94 179.78 121.41 179.78ZM152.17 179.78Q148.57 179.78 145.81 178.51Q143.05 177.24 141.22 174.97Q139.39 172.71 138.46 169.86Q137.53 167.01 137.53 163.91Q137.53 160.81 138.46 157.95Q139.39 155.1 141.22 152.87Q143.05 150.64 145.81 149.37Q148.57 148.1 152.17 148.1Q156.69 148.1 160.07 150.27Q163.45 152.44 165.06 156.96L158.99 159.32Q158.24 156.96 156.57 155.5Q154.89 154.05 152.17 154.05Q149.44 154.05 147.73 155.47Q146.03 156.9 145.22 159.13Q144.42 161.36 144.42 163.91Q144.42 166.45 145.22 168.71Q146.03 170.97 147.73 172.37Q149.44 173.76 152.17 173.76Q154.89 173.76 156.57 172.34Q158.24 170.91 158.99 168.56L165.06 170.91Q163.45 175.38 160.07 177.58Q156.69 179.78 152.17 179.78ZM183.48 179.78Q179.14 179.78 175.66 177.73Q172.19 175.69 170.24 172.09Q168.29 168.49 168.29 163.91Q168.29 159.32 170.24 155.72Q172.19 152.13 175.63 150.11Q179.07 148.1 183.48 148.1Q187.94 148.1 191.32 150.11Q194.7 152.13 196.68 155.72Q198.67 159.32 198.67 163.91Q198.67 168.49 196.71 172.09Q194.76 175.69 191.32 177.73Q187.88 179.78 183.48 179.78ZM183.54 173.7Q186.08 173.7 187.94 172.52Q189.8 171.35 190.79 169.11Q191.78 166.88 191.78 163.91Q191.78 160.87 190.79 158.67Q189.8 156.47 187.94 155.29Q186.08 154.11 183.54 154.11Q180.87 154.11 179.01 155.32Q177.15 156.53 176.16 158.7Q175.17 160.87 175.17 163.91Q175.17 166.88 176.16 169.11Q177.15 171.35 179.01 172.52Q180.87 173.7 183.54 173.7ZM214.35 179.78Q210.76 179.78 208.31 178.35Q205.86 176.93 204.62 174.26Q203.38 171.59 203.38 167.81V148.65H210.26V165.95Q210.26 168.37 210.85 170.14Q211.44 171.9 212.77 172.83Q214.1 173.76 216.4 173.76Q219.06 173.76 220.58 172.37Q222.1 170.97 222.75 168.28Q223.4 165.58 223.4 161.8V148.65H230.29V179.22H223.4V172.65L224.58 173.08Q223.16 176.55 220.46 178.17Q217.76 179.78 214.35 179.78ZM236.86 179.22V148.65H243.74V155.41L242.5 155.72Q243.31 153.06 244.86 151.38Q246.41 149.71 248.48 148.9Q250.56 148.1 252.85 148.1Q258 148.1 260.88 151.04Q263.77 153.99 263.77 159.44V179.22H256.88V161.98Q256.88 157.89 255.4 155.97Q253.91 154.05 250.81 154.05Q248.51 154.05 246.93 155.13Q245.35 156.22 244.55 158.51Q243.74 160.81 243.74 164.34V179.22ZM281.06 179.78Q278.77 179.78 276.75 178.88Q274.74 177.98 273.56 175.96Q272.38 173.95 272.38 170.66V141.21L279.33 137.37V168.74Q279.33 171.35 280.1 172.74Q280.88 174.14 282.92 174.14Q283.54 174.14 284.38 173.98Q285.22 173.83 286.15 173.58V178.91Q284.91 179.34 283.64 179.56Q282.37 179.78 281.06 179.78ZM266.56 153.99V148.65H286.15V153.99ZM310.45 179.22 309.96 174.07V159.94Q309.96 156.96 308.16 155.44Q306.36 153.92 303.14 153.92Q300.66 153.92 298.27 154.88Q295.88 155.85 293.9 157.83L290.05 153.3Q293.03 150.51 296.38 149.31Q299.73 148.1 303.69 148.1Q309.89 148.1 313.34 151.23Q316.78 154.36 316.78 159.94V179.22ZM300.97 179.78Q297.56 179.78 294.92 178.54Q292.29 177.3 290.83 175.07Q289.37 172.83 289.37 169.86Q289.37 167.32 290.46 165.46Q291.54 163.6 293.28 162.54Q294.77 161.61 296.75 161.21Q298.73 160.81 300.9 160.81H310.51V165.95H301.9Q300.78 165.95 299.66 166.17Q298.55 166.39 297.68 166.94Q297.06 167.44 296.66 168.18Q296.25 168.93 296.25 169.92Q296.25 171.9 297.77 173.05Q299.29 174.2 301.83 174.2Q304.07 174.2 305.9 173.21Q307.72 172.21 308.84 170.48Q309.96 168.74 309.96 166.57L312.06 169.98Q311.32 173.21 309.71 175.41Q308.1 177.61 305.86 178.69Q303.63 179.78 300.97 179.78ZM338.85 179.78Q336.37 179.78 334.17 178.79Q331.97 177.79 330.35 175.72Q328.74 173.64 327.94 170.29L329.73 170.73V179.22H322.91V136.01H329.73V157.21H328.18Q328.8 154.3 330.32 152.28Q331.84 150.27 334.04 149.18Q336.24 148.1 338.85 148.1Q342.57 148.1 345.58 149.99Q348.58 151.88 350.38 155.41Q352.18 158.95 352.18 163.91Q352.18 168.43 350.53 172.03Q348.89 175.62 345.92 177.7Q342.94 179.78 338.85 179.78ZM337.17 173.45Q339.59 173.45 341.42 172.28Q343.25 171.1 344.24 168.93Q345.23 166.76 345.23 163.91Q345.23 161.05 344.24 158.88Q343.25 156.71 341.42 155.54Q339.59 154.36 337.17 154.36Q334.76 154.36 332.93 155.57Q331.1 156.78 330.11 158.92Q329.11 161.05 329.11 163.91Q329.11 166.76 330.11 168.93Q331.1 171.1 332.93 172.28Q334.76 173.45 337.17 173.45ZM364.02 179.78Q361.04 179.78 359.06 177.95Q357.08 176.12 357.08 172.09V136.01H363.96V170.73Q363.96 172.15 364.61 172.8Q365.26 173.45 366.31 173.45Q366.87 173.45 367.46 173.33Q368.05 173.21 368.67 173.02V178.85Q367.49 179.34 366.25 179.56Q365.01 179.78 364.02 179.78ZM386.03 179.78Q382.19 179.78 379.37 178.54Q376.54 177.3 374.75 175.07Q372.95 172.83 372.08 170.01Q371.21 167.19 371.21 164.15Q371.21 161.12 372.05 158.23Q372.89 155.35 374.62 153.06Q376.36 150.76 379.09 149.43Q381.81 148.1 385.53 148.1Q389.07 148.1 391.7 149.31Q394.34 150.51 396.07 152.65Q397.81 154.79 398.65 157.52Q399.48 160.25 399.48 163.35Q399.48 163.78 399.45 164.59Q399.42 165.39 399.3 166.2H378.09Q378.34 169.86 380.57 171.78Q382.81 173.7 386.28 173.7Q388.82 173.7 390.93 172.9Q393.04 172.09 394.77 170.35L398.55 174.94Q396.63 176.68 394.71 177.73Q392.79 178.79 390.71 179.28Q388.63 179.78 386.03 179.78ZM392.73 162.73Q392.85 162.23 392.88 161.74Q392.91 161.24 392.91 160.74Q392.91 159.38 392.45 158.14Q391.98 156.9 391.05 155.94Q390.12 154.98 388.76 154.39Q387.39 153.8 385.66 153.8Q383.24 153.8 381.6 154.85Q379.95 155.91 379.06 157.55Q378.16 159.19 377.97 161.12H394.96ZM403.08 163.29V158.2H418.46V163.29ZM433.77 179.78Q430.48 179.78 427.94 178.82Q425.4 177.86 423.66 176.37Q421.93 174.88 420.81 173.39L425.52 169.3Q426.7 171.22 428.78 172.71Q430.86 174.2 433.83 174.2Q436.31 174.2 437.77 173.14Q439.23 172.09 439.23 170.54Q439.23 169.18 438.3 168.4Q437.37 167.63 435.88 167.07Q434.39 166.51 432.59 166.08Q430.86 165.64 429.06 164.99Q427.26 164.34 425.74 163.35Q424.22 162.36 423.29 160.81Q422.36 159.26 422.36 156.96Q422.36 152.93 425.46 150.51Q428.56 148.1 433.58 148.1Q437.18 148.1 440.16 149.52Q443.13 150.95 444.81 153.8L440.53 157.09Q439.29 155.23 437.43 154.3Q435.57 153.37 433.4 153.37Q431.41 153.37 430.08 154.17Q428.75 154.98 428.75 156.28Q428.75 157.27 429.37 157.89Q429.99 158.51 431.29 159.01Q432.59 159.5 434.58 160Q436.44 160.43 438.42 161.05Q440.4 161.67 442.11 162.7Q443.81 163.72 444.9 165.43Q445.98 167.13 445.98 169.8Q445.98 172.77 444.47 175.03Q442.95 177.3 440.19 178.54Q437.43 179.78 433.77 179.78ZM461.61 179.78Q458.01 179.78 455.56 178.35Q453.11 176.93 451.87 174.26Q450.63 171.59 450.63 167.81V148.65H457.52V165.95Q457.52 168.37 458.11 170.14Q458.69 171.9 460.03 172.83Q461.36 173.76 463.65 173.76Q466.32 173.76 467.84 172.37Q469.36 170.97 470.01 168.28Q470.66 165.58 470.66 161.8V148.65H477.54V179.22H470.66V172.65L471.84 173.08Q470.41 176.55 467.72 178.17Q465.02 179.78 461.61 179.78ZM484.11 179.22V148.65H491.06V156.9L489.76 157.09Q490.07 154.42 491.55 152.4Q493.04 150.39 495.18 149.24Q497.32 148.1 499.43 148.1Q500.92 148.1 502.28 148.47Q503.64 148.84 505.13 149.71L501.78 155.91Q501.1 155.47 500.02 155.19Q498.93 154.92 497.94 154.92Q496.64 154.92 495.37 155.41Q494.1 155.91 493.1 156.93Q492.11 157.95 491.62 159.57Q491.31 160.43 491.15 161.83Q491 163.22 491 165.7V179.22ZM511.02 179.22V153.99H505.19V148.65H511.08V145.18Q511.08 141.4 512.32 139.26Q513.56 137.12 515.64 136.29Q517.72 135.45 520.26 135.45Q522.06 135.45 523.45 135.79Q524.85 136.13 526.09 136.75L523.86 141.96Q523.24 141.59 522.52 141.37Q521.81 141.15 521 141.15Q519.33 141.15 518.62 142.24Q517.9 143.32 517.9 145.18V148.65H524.6V153.99H517.9V179.22ZM548.1 179.22 547.6 174.07V159.94Q547.6 156.96 545.8 155.44Q544.01 153.92 540.78 153.92Q538.3 153.92 535.92 154.88Q533.53 155.85 531.54 157.83L527.7 153.3Q530.68 150.51 534.02 149.31Q537.37 148.1 541.34 148.1Q547.54 148.1 550.98 151.23Q554.42 154.36 554.42 159.94V179.22ZM538.61 179.78Q535.2 179.78 532.57 178.54Q529.93 177.3 528.48 175.07Q527.02 172.83 527.02 169.86Q527.02 167.32 528.1 165.46Q529.19 163.6 530.92 162.54Q532.41 161.61 534.4 161.21Q536.38 160.81 538.55 160.81H548.16V165.95H539.54Q538.43 165.95 537.31 166.17Q536.19 166.39 535.33 166.94Q534.71 167.44 534.3 168.18Q533.9 168.93 533.9 169.92Q533.9 171.9 535.42 173.05Q536.94 174.2 539.48 174.2Q541.71 174.2 543.54 173.21Q545.37 172.21 546.49 170.48Q547.6 168.74 547.6 166.57L549.71 169.98Q548.97 173.21 547.35 175.41Q545.74 177.61 543.51 178.69Q541.28 179.78 538.61 179.78ZM573.77 179.78Q570.17 179.78 567.41 178.51Q564.65 177.24 562.82 174.97Q560.99 172.71 560.06 169.86Q559.13 167.01 559.13 163.91Q559.13 160.81 560.06 157.95Q560.99 155.1 562.82 152.87Q564.65 150.64 567.41 149.37Q570.17 148.1 573.77 148.1Q578.29 148.1 581.67 150.27Q585.05 152.44 586.66 156.96L580.59 159.32Q579.84 156.96 578.17 155.5Q576.49 154.05 573.77 154.05Q571.04 154.05 569.33 155.47Q567.63 156.9 566.82 159.13Q566.02 161.36 566.02 163.91Q566.02 166.45 566.82 168.71Q567.63 170.97 569.33 172.37Q571.04 173.76 573.77 173.76Q576.49 173.76 578.17 172.34Q579.84 170.91 580.59 168.56L586.66 170.91Q585.05 175.38 581.67 177.58Q578.29 179.78 573.77 179.78ZM604.7 179.78Q600.86 179.78 598.04 178.54Q595.22 177.3 593.42 175.07Q591.62 172.83 590.75 170.01Q589.89 167.19 589.89 164.15Q589.89 161.12 590.72 158.23Q591.56 155.35 593.3 153.06Q595.03 150.76 597.76 149.43Q600.49 148.1 604.21 148.1Q607.74 148.1 610.38 149.31Q613.01 150.51 614.75 152.65Q616.48 154.79 617.32 157.52Q618.16 160.25 618.16 163.35Q618.16 163.78 618.13 164.59Q618.1 165.39 617.97 166.2H596.77Q597.02 169.86 599.25 171.78Q601.48 173.7 604.95 173.7Q607.49 173.7 609.6 172.9Q611.71 172.09 613.45 170.35L617.23 174.94Q615.31 176.68 613.38 177.73Q611.46 178.79 609.38 179.28Q607.31 179.78 604.7 179.78ZM611.4 162.73Q611.52 162.23 611.56 161.74Q611.59 161.24 611.59 160.74Q611.59 159.38 611.12 158.14Q610.66 156.9 609.73 155.94Q608.8 154.98 607.43 154.39Q606.07 153.8 604.33 153.8Q601.91 153.8 600.27 154.85Q598.63 155.91 597.73 157.55Q596.83 159.19 596.64 161.12H613.63Z"/><path fill="#c9c3b6" d="M73.97 251.36V233.94H76.17V249.39H83.97V251.36ZM91.12 251.56Q89.67 251.56 88.59 251.07Q87.5 250.59 86.79 249.71Q86.08 248.84 85.71 247.7Q85.35 246.56 85.35 245.29Q85.35 244.01 85.7 242.85Q86.05 241.69 86.74 240.79Q87.42 239.89 88.47 239.36Q89.53 238.84 90.92 238.84Q92.35 238.84 93.39 239.32Q94.42 239.81 95.09 240.66Q95.75 241.51 96.08 242.56Q96.4 243.61 96.4 244.74Q96.4 244.84 96.39 245.2Q96.38 245.56 96.33 245.84H87.45Q87.53 247.64 88.5 248.64Q89.47 249.64 91.15 249.64Q92.22 249.64 93.03 249.29Q93.83 248.94 94.53 248.16L96 249.46Q95.33 250.19 94.58 250.65Q93.83 251.11 92.99 251.34Q92.15 251.56 91.12 251.56ZM94.3 244.76Q94.35 244.56 94.36 244.36Q94.38 244.16 94.38 243.96Q94.38 243.36 94.16 242.76Q93.95 242.16 93.54 241.67Q93.12 241.19 92.49 240.9Q91.85 240.61 90.97 240.61Q89.9 240.61 89.12 241.11Q88.35 241.61 87.92 242.44Q87.5 243.26 87.42 244.26H95ZM103.4 251.56Q102.53 251.56 101.81 251.22Q101.1 250.89 100.7 250.14Q100.3 249.39 100.3 248.21V235.74L102.45 234.54V247.66Q102.45 248.69 102.78 249.25Q103.1 249.81 103.95 249.81Q104.2 249.81 104.55 249.75Q104.9 249.69 105.3 249.59V251.24Q104.83 251.41 104.34 251.49Q103.85 251.56 103.4 251.56ZM97.75 240.69V239.04H105.3V240.69ZM112.03 251.56Q110.78 251.56 109.78 251.19Q108.78 250.81 108.06 250.19Q107.35 249.56 106.93 248.86L108.4 247.61Q108.88 248.56 109.81 249.17Q110.75 249.79 112.05 249.79Q113.23 249.79 113.93 249.29Q114.62 248.79 114.62 247.94Q114.62 247.24 114.2 246.84Q113.78 246.44 113.08 246.19Q112.38 245.94 111.55 245.74Q110.85 245.56 110.14 245.31Q109.43 245.06 108.85 244.69Q108.28 244.31 107.93 243.71Q107.58 243.11 107.58 242.24Q107.58 240.71 108.76 239.77Q109.95 238.84 111.88 238.84Q113.28 238.84 114.44 239.42Q115.6 240.01 116.25 241.19L114.9 242.19Q114.4 241.31 113.59 240.92Q112.78 240.54 111.8 240.54Q110.83 240.54 110.18 240.94Q109.53 241.34 109.53 242.04Q109.53 242.56 109.83 242.88Q110.12 243.21 110.71 243.44Q111.3 243.66 112.15 243.86Q112.93 244.04 113.73 244.29Q114.53 244.54 115.2 244.94Q115.88 245.34 116.29 246Q116.7 246.66 116.7 247.71Q116.7 248.86 116.12 249.74Q115.55 250.61 114.5 251.09Q113.45 251.56 112.03 251.56ZM134.3 251.36 134.15 248.89V243.64Q134.15 242.21 133.36 241.44Q132.58 240.66 131.03 240.66Q130.03 240.66 129.15 241.07Q128.28 241.49 127.45 242.46L125.93 241.16Q126.95 239.96 128.28 239.4Q129.6 238.84 131.18 238.84Q133.6 238.84 134.93 240.09Q136.25 241.34 136.25 243.64V251.36ZM130.22 251.56Q128.83 251.56 127.79 251.07Q126.75 250.59 126.19 249.71Q125.62 248.84 125.62 247.69Q125.62 246.66 126.04 245.95Q126.45 245.24 127.1 244.84Q127.75 244.41 128.59 244.25Q129.43 244.09 130.35 244.09H134.35V245.69H130.65Q130.1 245.69 129.5 245.79Q128.9 245.89 128.45 246.21Q128.12 246.46 127.94 246.84Q127.75 247.21 127.75 247.71Q127.75 248.69 128.48 249.26Q129.2 249.84 130.43 249.84Q131.45 249.84 132.29 249.36Q133.12 248.89 133.64 248.05Q134.15 247.21 134.15 246.16L135.03 247.06Q134.88 248.39 134.23 249.41Q133.58 250.44 132.56 251Q131.55 251.56 130.22 251.56ZM139.7 251.36V239.04H141.83V241.66L141.33 241.84Q141.68 240.89 142.28 240.22Q142.88 239.56 143.73 239.2Q144.58 238.84 145.6 238.84Q147.62 238.84 148.78 240.02Q149.93 241.21 149.93 243.54V251.36H147.8V244.31Q147.8 242.44 147.11 241.55Q146.43 240.66 145.03 240.66Q144 240.66 143.29 241.14Q142.58 241.61 142.2 242.62Q141.83 243.64 141.83 245.21V251.36ZM158.5 251.36 165.15 233.94H166.9L173.55 251.36H171.15L166.05 237.09L160.92 251.36ZM162.2 247.26 162.88 245.29H169.17L169.9 247.26ZM175.97 251.36V233.94H178.18V251.36ZM196.55 251.36 196.4 248.89V243.64Q196.4 242.21 195.61 241.44Q194.83 240.66 193.28 240.66Q192.28 240.66 191.4 241.07Q190.53 241.49 189.7 242.46L188.18 241.16Q189.2 239.96 190.53 239.4Q191.85 238.84 193.43 238.84Q195.85 238.84 197.18 240.09Q198.5 241.34 198.5 243.64V251.36ZM192.47 251.56Q191.08 251.56 190.04 251.07Q189 250.59 188.44 249.71Q187.88 248.84 187.88 247.69Q187.88 246.66 188.29 245.95Q188.7 245.24 189.35 244.84Q190 244.41 190.84 244.25Q191.68 244.09 192.6 244.09H196.6V245.69H192.9Q192.35 245.69 191.75 245.79Q191.15 245.89 190.7 246.21Q190.38 246.46 190.19 246.84Q190 247.21 190 247.71Q190 248.69 190.73 249.26Q191.45 249.84 192.68 249.84Q193.7 249.84 194.54 249.36Q195.38 248.89 195.89 248.05Q196.4 247.21 196.4 246.16L197.28 247.06Q197.12 248.39 196.48 249.41Q195.83 250.44 194.81 251Q193.8 251.56 192.47 251.56ZM206.93 256.69Q204.28 256.69 202.73 255.71Q201.18 254.74 201.18 253.01Q201.18 252.89 201.19 252.69Q201.2 252.49 201.25 252.31L204.33 250.09L205.05 250.59L203.3 252.76Q203.28 252.86 203.28 252.94Q203.28 253.01 203.28 253.09Q203.28 254.09 204.32 254.57Q205.38 255.06 206.93 255.06Q208.3 255.06 209.2 254.67Q210.1 254.29 210.1 253.41Q210.1 252.91 209.81 252.6Q209.53 252.29 208.99 252.11Q208.45 251.94 207.73 251.81Q207 251.69 206.1 251.56Q204.97 251.39 203.91 251.06Q202.85 250.74 202.16 250.11Q201.47 249.49 201.47 248.46Q201.47 247.59 202.09 246.86Q202.7 246.14 203.7 245.66L205.05 246.54Q204.2 246.74 203.85 247.15Q203.5 247.56 203.5 248.14Q203.5 248.61 203.84 248.91Q204.18 249.21 204.81 249.37Q205.45 249.54 206.35 249.66Q207.55 249.84 208.6 250.04Q209.65 250.24 210.46 250.6Q211.28 250.96 211.73 251.57Q212.18 252.19 212.18 253.16Q212.18 254.86 210.78 255.77Q209.38 256.69 206.93 256.69ZM206.62 247.51Q205.2 247.51 204.1 246.96Q203 246.41 202.39 245.44Q201.78 244.46 201.78 243.21Q201.78 241.91 202.41 240.92Q203.05 239.94 204.14 239.38Q205.22 238.84 206.55 238.84Q207.85 238.84 208.93 239.38Q210 239.94 210.65 240.94Q211.3 241.94 211.3 243.29Q211.3 244.56 210.7 245.51Q210.1 246.46 209.05 246.99Q208 247.51 206.62 247.51ZM206.58 245.79Q207.83 245.79 208.51 245.02Q209.2 244.26 209.2 243.16Q209.2 241.99 208.48 241.26Q207.75 240.54 206.58 240.54Q205.38 240.54 204.62 241.27Q203.88 242.01 203.88 243.14Q203.88 244.26 204.6 245.02Q205.33 245.79 206.58 245.79ZM210.5 241.34 208.97 240.31 211.58 238.16 212.65 239.49ZM219.78 251.56Q218.33 251.56 217.24 251.07Q216.15 250.59 215.44 249.71Q214.72 248.84 214.36 247.7Q214 246.56 214 245.29Q214 244.01 214.35 242.85Q214.7 241.69 215.39 240.79Q216.08 239.89 217.12 239.36Q218.18 238.84 219.58 238.84Q221 238.84 222.04 239.32Q223.08 239.81 223.74 240.66Q224.4 241.51 224.73 242.56Q225.05 243.61 225.05 244.74Q225.05 244.84 225.04 245.2Q225.03 245.56 224.97 245.84H216.1Q216.18 247.64 217.15 248.64Q218.12 249.64 219.8 249.64Q220.88 249.64 221.68 249.29Q222.47 248.94 223.18 248.16L224.65 249.46Q223.97 250.19 223.22 250.65Q222.47 251.11 221.64 251.34Q220.8 251.56 219.78 251.56ZM222.95 244.76Q223 244.56 223.01 244.36Q223.03 244.16 223.03 243.96Q223.03 243.36 222.81 242.76Q222.6 242.16 222.19 241.67Q221.78 241.19 221.14 240.9Q220.5 240.61 219.62 240.61Q218.55 240.61 217.78 241.11Q217 241.61 216.57 242.44Q216.15 243.26 216.08 244.26H223.65ZM228.08 251.36V239.04H230.2V241.66L229.7 241.84Q230.05 240.89 230.65 240.22Q231.25 239.56 232.1 239.2Q232.95 238.84 233.97 238.84Q236 238.84 237.15 240.02Q238.3 241.21 238.3 243.54V251.36H236.18V244.31Q236.18 242.44 235.49 241.55Q234.8 240.66 233.4 240.66Q232.38 240.66 231.66 241.14Q230.95 241.61 230.58 242.62Q230.2 243.64 230.2 245.21V251.36ZM245.85 251.56Q244.98 251.56 244.26 251.22Q243.55 250.89 243.15 250.14Q242.75 249.39 242.75 248.21V235.74L244.9 234.54V247.66Q244.9 248.69 245.23 249.25Q245.55 249.81 246.4 249.81Q246.65 249.81 247 249.75Q247.35 249.69 247.75 249.59V251.24Q247.28 251.41 246.79 251.49Q246.3 251.56 245.85 251.56ZM240.2 240.69V239.04H247.75V240.69ZM261 251.56Q260.12 251.56 259.41 251.22Q258.7 250.89 258.3 250.14Q257.9 249.39 257.9 248.21V235.74L260.05 234.54V247.66Q260.05 248.69 260.38 249.25Q260.7 249.81 261.55 249.81Q261.8 249.81 262.15 249.75Q262.5 249.69 262.9 249.59V251.24Q262.43 251.41 261.94 251.49Q261.45 251.56 261 251.56ZM255.35 240.69V239.04H262.9V240.69ZM273.65 251.36 273.5 248.89V243.64Q273.5 242.21 272.71 241.44Q271.93 240.66 270.38 240.66Q269.38 240.66 268.5 241.07Q267.62 241.49 266.8 242.46L265.27 241.16Q266.3 239.96 267.62 239.4Q268.95 238.84 270.52 238.84Q272.95 238.84 274.27 240.09Q275.6 241.34 275.6 243.64V251.36ZM269.57 251.56Q268.18 251.56 267.14 251.07Q266.1 250.59 265.54 249.71Q264.98 248.84 264.98 247.69Q264.98 246.66 265.39 245.95Q265.8 245.24 266.45 244.84Q267.1 244.41 267.94 244.25Q268.77 244.09 269.7 244.09H273.7V245.69H270Q269.45 245.69 268.85 245.79Q268.25 245.89 267.8 246.21Q267.48 246.46 267.29 246.84Q267.1 247.21 267.1 247.71Q267.1 248.69 267.83 249.26Q268.55 249.84 269.77 249.84Q270.8 249.84 271.64 249.36Q272.48 248.89 272.99 248.05Q273.5 247.21 273.5 246.16L274.38 247.06Q274.23 248.39 273.58 249.41Q272.93 250.44 271.91 251Q270.9 251.56 269.57 251.56ZM287.45 251.36 283.35 245.01 280.93 247.61V244.89L286.6 239.04H289.32L284.9 243.59L289.98 251.36ZM279.05 251.36V233.94H281.18V251.36ZM296.9 251.56Q295.45 251.56 294.36 251.07Q293.28 250.59 292.56 249.71Q291.85 248.84 291.49 247.7Q291.13 246.56 291.13 245.29Q291.13 244.01 291.48 242.85Q291.83 241.69 292.51 240.79Q293.2 239.89 294.25 239.36Q295.3 238.84 296.7 238.84Q298.13 238.84 299.16 239.32Q300.2 239.81 300.86 240.66Q301.53 241.51 301.85 242.56Q302.18 243.61 302.18 244.74Q302.18 244.84 302.16 245.2Q302.15 245.56 302.1 245.84H293.23Q293.3 247.64 294.28 248.64Q295.25 249.64 296.93 249.64Q298 249.64 298.8 249.29Q299.6 248.94 300.3 248.16L301.78 249.46Q301.1 250.19 300.35 250.65Q299.6 251.11 298.76 251.34Q297.93 251.56 296.9 251.56ZM300.08 244.76Q300.13 244.56 300.14 244.36Q300.15 244.16 300.15 243.96Q300.15 243.36 299.94 242.76Q299.73 242.16 299.31 241.67Q298.9 241.19 298.26 240.9Q297.63 240.61 296.75 240.61Q295.68 240.61 294.9 241.11Q294.13 241.61 293.7 242.44Q293.28 243.26 293.2 244.26H300.78ZM317.13 251.56Q315.4 251.56 314.04 250.75Q312.68 249.94 311.9 248.49Q311.13 247.04 311.13 245.19Q311.13 243.34 311.89 241.9Q312.65 240.46 314.01 239.65Q315.38 238.84 317.13 238.84Q318.88 238.84 320.21 239.65Q321.55 240.46 322.33 241.9Q323.1 243.34 323.1 245.19Q323.1 247.04 322.33 248.47Q321.55 249.91 320.2 250.74Q318.85 251.56 317.13 251.56ZM317.13 249.69Q318.3 249.69 319.16 249.12Q320.03 248.56 320.5 247.55Q320.98 246.54 320.98 245.19Q320.98 243.81 320.5 242.8Q320.03 241.79 319.16 241.24Q318.3 240.69 317.13 240.69Q315.93 240.69 315.05 241.25Q314.18 241.81 313.7 242.81Q313.23 243.81 313.23 245.19Q313.23 246.54 313.7 247.55Q314.18 248.56 315.05 249.12Q315.93 249.69 317.13 249.69ZM326.13 251.36V239.04H328.25V241.66L327.75 241.84Q328.1 240.89 328.7 240.22Q329.3 239.56 330.15 239.2Q331 238.84 332.03 238.84Q334.05 238.84 335.2 240.02Q336.35 241.21 336.35 243.54V251.36H334.23V244.31Q334.23 242.44 333.54 241.55Q332.85 240.66 331.45 240.66Q330.43 240.66 329.71 241.14Q329 241.61 328.63 242.62Q328.25 243.64 328.25 245.21V251.36ZM342.28 251.56Q341.15 251.56 340.45 250.86Q339.75 250.16 339.75 248.64V233.94H341.85V248.24Q341.85 248.96 342.15 249.29Q342.45 249.61 342.95 249.61Q343.18 249.61 343.45 249.56Q343.73 249.51 344.03 249.41V251.21Q343.6 251.39 343.13 251.47Q342.65 251.56 342.28 251.56ZM347.65 256.44 350 250.76 345.2 239.04H347.53L351.13 248.64L354.75 239.04H357.05L349.95 256.44ZM370.05 251.56Q369.18 251.56 368.46 251.22Q367.75 250.89 367.35 250.14Q366.95 249.39 366.95 248.21V235.74L369.1 234.54V247.66Q369.1 248.69 369.43 249.25Q369.75 249.81 370.6 249.81Q370.85 249.81 371.2 249.75Q371.55 249.69 371.95 249.59V251.24Q371.48 251.41 370.99 251.49Q370.5 251.56 370.05 251.56ZM364.4 240.69V239.04H371.95V240.69ZM374.6 251.36V233.94H376.73V241.66L376.2 241.86Q376.55 240.91 377.18 240.24Q377.8 239.56 378.65 239.2Q379.5 238.84 380.5 238.84Q382.53 238.84 383.68 240.02Q384.82 241.21 384.82 243.54V251.36H382.7V244.31Q382.7 242.44 382.01 241.55Q381.32 240.66 379.93 240.66Q378.4 240.66 377.56 241.75Q376.73 242.84 376.73 245.21V251.36ZM393.48 251.56Q392.03 251.56 390.94 251.07Q389.85 250.59 389.14 249.71Q388.43 248.84 388.06 247.7Q387.7 246.56 387.7 245.29Q387.7 244.01 388.05 242.85Q388.4 241.69 389.09 240.79Q389.78 239.89 390.83 239.36Q391.88 238.84 393.28 238.84Q394.7 238.84 395.74 239.32Q396.78 239.81 397.44 240.66Q398.1 241.51 398.43 242.56Q398.75 243.61 398.75 244.74Q398.75 244.84 398.74 245.2Q398.73 245.56 398.68 245.84H389.8Q389.88 247.64 390.85 248.64Q391.83 249.64 393.5 249.64Q394.58 249.64 395.38 249.29Q396.18 248.94 396.88 248.16L398.35 249.46Q397.68 250.19 396.93 250.65Q396.18 251.11 395.34 251.34Q394.5 251.56 393.48 251.56ZM396.65 244.76Q396.7 244.56 396.71 244.36Q396.73 244.16 396.73 243.96Q396.73 243.36 396.51 242.76Q396.3 242.16 395.89 241.67Q395.48 241.19 394.84 240.9Q394.2 240.61 393.33 240.61Q392.25 240.61 391.48 241.11Q390.7 241.61 390.28 242.44Q389.85 243.26 389.78 244.26H397.35ZM416.38 251.36 416.23 248.89V243.64Q416.23 242.21 415.44 241.44Q414.65 240.66 413.1 240.66Q412.1 240.66 411.23 241.07Q410.35 241.49 409.53 242.46L408 241.16Q409.03 239.96 410.35 239.4Q411.68 238.84 413.25 238.84Q415.68 238.84 417 240.09Q418.33 241.34 418.33 243.64V251.36ZM412.3 251.56Q410.9 251.56 409.86 251.07Q408.83 250.59 408.26 249.71Q407.7 248.84 407.7 247.69Q407.7 246.66 408.11 245.95Q408.53 245.24 409.18 244.84Q409.83 244.41 410.66 244.25Q411.5 244.09 412.43 244.09H416.43V245.69H412.73Q412.18 245.69 411.58 245.79Q410.98 245.89 410.53 246.21Q410.2 246.46 410.01 246.84Q409.83 247.21 409.83 247.71Q409.83 248.69 410.55 249.26Q411.28 249.84 412.5 249.84Q413.53 249.84 414.36 249.36Q415.2 248.89 415.71 248.05Q416.23 247.21 416.23 246.16L417.1 247.06Q416.95 248.39 416.3 249.41Q415.65 250.44 414.64 251Q413.62 251.56 412.3 251.56ZM426.9 251.56Q425.53 251.56 424.46 251.06Q423.4 250.56 422.68 249.67Q421.95 248.79 421.58 247.64Q421.2 246.49 421.2 245.19Q421.2 243.91 421.58 242.76Q421.95 241.61 422.68 240.72Q423.4 239.84 424.46 239.34Q425.53 238.84 426.9 238.84Q428.65 238.84 429.96 239.69Q431.28 240.54 431.9 242.29L430.03 243.01Q429.68 241.96 428.9 241.31Q428.12 240.66 426.9 240.66Q425.68 240.66 424.88 241.31Q424.08 241.96 423.69 242.99Q423.3 244.01 423.3 245.19Q423.3 246.36 423.69 247.4Q424.08 248.44 424.88 249.07Q425.68 249.71 426.9 249.71Q428.12 249.71 428.9 249.07Q429.68 248.44 430.03 247.36L431.9 248.09Q431.28 249.84 429.96 250.7Q428.65 251.56 426.9 251.56ZM438.82 251.56Q437.95 251.56 437.24 251.22Q436.53 250.89 436.12 250.14Q435.73 249.39 435.73 248.21V235.74L437.88 234.54V247.66Q437.88 248.69 438.2 249.25Q438.53 249.81 439.38 249.81Q439.62 249.81 439.98 249.75Q440.32 249.69 440.73 249.59V251.24Q440.25 251.41 439.76 251.49Q439.28 251.56 438.82 251.56ZM433.18 240.69V239.04H440.73V240.69ZM443.35 251.36V239.04H445.45V251.36ZM443.15 236.81V233.94H445.65V236.81ZM454.45 251.56Q452.72 251.56 451.36 250.75Q450 249.94 449.22 248.49Q448.45 247.04 448.45 245.19Q448.45 243.34 449.21 241.9Q449.97 240.46 451.34 239.65Q452.7 238.84 454.45 238.84Q456.2 238.84 457.54 239.65Q458.87 240.46 459.65 241.9Q460.42 243.34 460.42 245.19Q460.42 247.04 459.65 248.47Q458.87 249.91 457.52 250.74Q456.17 251.56 454.45 251.56ZM454.45 249.69Q455.62 249.69 456.49 249.12Q457.35 248.56 457.82 247.55Q458.3 246.54 458.3 245.19Q458.3 243.81 457.82 242.8Q457.35 241.79 456.49 241.24Q455.62 240.69 454.45 240.69Q453.25 240.69 452.37 241.25Q451.5 241.81 451.02 242.81Q450.55 243.81 450.55 245.19Q450.55 246.54 451.02 247.55Q451.5 248.56 452.37 249.12Q453.25 249.69 454.45 249.69ZM463.45 251.36V239.04H465.57V241.66L465.07 241.84Q465.42 240.89 466.02 240.22Q466.62 239.56 467.48 239.2Q468.32 238.84 469.35 238.84Q471.38 238.84 472.52 240.02Q473.67 241.21 473.67 243.54V251.36H471.55V244.31Q471.55 242.44 470.86 241.55Q470.17 240.66 468.77 240.66Q467.75 240.66 467.04 241.14Q466.32 241.61 465.95 242.62Q465.57 243.64 465.57 245.21V251.36ZM481.2 251.56Q479.95 251.56 478.95 251.19Q477.95 250.81 477.24 250.19Q476.52 249.56 476.1 248.86L477.57 247.61Q478.05 248.56 478.99 249.17Q479.93 249.79 481.22 249.79Q482.4 249.79 483.1 249.29Q483.8 248.79 483.8 247.94Q483.8 247.24 483.38 246.84Q482.95 246.44 482.25 246.19Q481.55 245.94 480.72 245.74Q480.02 245.56 479.31 245.31Q478.6 245.06 478.02 244.69Q477.45 244.31 477.1 243.71Q476.75 243.11 476.75 242.24Q476.75 240.71 477.94 239.77Q479.12 238.84 481.05 238.84Q482.45 238.84 483.61 239.42Q484.77 240.01 485.43 241.19L484.07 242.19Q483.57 241.31 482.76 240.92Q481.95 240.54 480.97 240.54Q480 240.54 479.35 240.94Q478.7 241.34 478.7 242.04Q478.7 242.56 479 242.88Q479.3 243.21 479.89 243.44Q480.47 243.66 481.32 243.86Q482.1 244.04 482.9 244.29Q483.7 244.54 484.38 244.94Q485.05 245.34 485.46 246Q485.88 246.66 485.88 247.71Q485.88 248.86 485.3 249.74Q484.72 250.61 483.67 251.09Q482.62 251.56 481.2 251.56ZM503.47 251.36 503.32 248.89V243.64Q503.32 242.21 502.54 241.44Q501.75 240.66 500.2 240.66Q499.2 240.66 498.32 241.07Q497.45 241.49 496.62 242.46L495.1 241.16Q496.12 239.96 497.45 239.4Q498.77 238.84 500.35 238.84Q502.77 238.84 504.1 240.09Q505.43 241.34 505.43 243.64V251.36ZM499.4 251.56Q498 251.56 496.96 251.07Q495.93 250.59 495.36 249.71Q494.8 248.84 494.8 247.69Q494.8 246.66 495.21 245.95Q495.62 245.24 496.27 244.84Q496.93 244.41 497.76 244.25Q498.6 244.09 499.52 244.09H503.52V245.69H499.82Q499.27 245.69 498.67 245.79Q498.07 245.89 497.62 246.21Q497.3 246.46 497.11 246.84Q496.93 247.21 496.93 247.71Q496.93 248.69 497.65 249.26Q498.38 249.84 499.6 249.84Q500.62 249.84 501.46 249.36Q502.3 248.89 502.81 248.05Q503.32 247.21 503.32 246.16L504.2 247.06Q504.05 248.39 503.4 249.41Q502.75 250.44 501.74 251Q500.72 251.56 499.4 251.56ZM515.38 256.46V239.04H517.48V242.71L516.8 242.24Q517.12 241.16 517.76 240.4Q518.4 239.64 519.33 239.24Q520.25 238.84 521.43 238.84Q523.1 238.84 524.36 239.67Q525.62 240.51 526.33 241.95Q527.03 243.39 527.03 245.21Q527.03 247.14 526.28 248.57Q525.53 250.01 524.25 250.79Q522.98 251.56 521.43 251.56Q520.25 251.56 519.33 251.13Q518.4 250.71 517.78 249.96Q517.15 249.21 516.88 248.26L517.48 247.69V256.46ZM521.08 249.64Q522.2 249.64 523.06 249.07Q523.93 248.51 524.41 247.51Q524.9 246.51 524.9 245.21Q524.9 243.91 524.41 242.91Q523.93 241.91 523.06 241.35Q522.2 240.79 521.08 240.79Q519.95 240.79 519.1 241.35Q518.25 241.91 517.78 242.91Q517.3 243.91 517.3 245.21Q517.3 246.51 517.78 247.51Q518.25 248.51 519.1 249.07Q519.95 249.64 521.08 249.64ZM535.25 251.56Q533.8 251.56 532.71 251.07Q531.62 250.59 530.91 249.71Q530.2 248.84 529.84 247.7Q529.48 246.56 529.48 245.29Q529.48 244.01 529.83 242.85Q530.17 241.69 530.86 240.79Q531.55 239.89 532.6 239.36Q533.65 238.84 535.05 238.84Q536.48 238.84 537.51 239.32Q538.55 239.81 539.21 240.66Q539.88 241.51 540.2 242.56Q540.52 243.61 540.52 244.74Q540.52 244.84 540.51 245.2Q540.5 245.56 540.45 245.84H531.58Q531.65 247.64 532.62 248.64Q533.6 249.64 535.27 249.64Q536.35 249.64 537.15 249.29Q537.95 248.94 538.65 248.16L540.12 249.46Q539.45 250.19 538.7 250.65Q537.95 251.11 537.11 251.34Q536.27 251.56 535.25 251.56ZM538.42 244.76Q538.48 244.56 538.49 244.36Q538.5 244.16 538.5 243.96Q538.5 243.36 538.29 242.76Q538.08 242.16 537.66 241.67Q537.25 241.19 536.61 240.9Q535.98 240.61 535.1 240.61Q534.02 240.61 533.25 241.11Q532.48 241.61 532.05 242.44Q531.62 243.26 531.55 244.26H539.12ZM543.55 251.36V239.04H545.67V242.34L545.12 242.46Q545.3 241.36 545.96 240.55Q546.62 239.74 547.51 239.29Q548.4 238.84 549.25 238.84Q549.83 238.84 550.35 238.96Q550.88 239.09 551.42 239.39L550.38 241.29Q550.08 241.14 549.66 241.04Q549.25 240.94 548.88 240.94Q548.27 240.94 547.69 241.16Q547.1 241.39 546.62 241.86Q546.15 242.34 545.9 243.14Q545.8 243.49 545.74 244.05Q545.67 244.61 545.67 245.59V251.36ZM557.42 251.56Q556.17 251.56 555.17 251.19Q554.17 250.81 553.46 250.19Q552.75 249.56 552.32 248.86L553.8 247.61Q554.27 248.56 555.21 249.17Q556.15 249.79 557.45 249.79Q558.62 249.79 559.33 249.29Q560.02 248.79 560.02 247.94Q560.02 247.24 559.6 246.84Q559.17 246.44 558.47 246.19Q557.77 245.94 556.95 245.74Q556.25 245.56 555.54 245.31Q554.82 245.06 554.25 244.69Q553.67 244.31 553.32 243.71Q552.97 243.11 552.97 242.24Q552.97 240.71 554.16 239.77Q555.35 238.84 557.27 238.84Q558.67 238.84 559.84 239.42Q561 240.01 561.65 241.19L560.3 242.19Q559.8 241.31 558.99 240.92Q558.17 240.54 557.2 240.54Q556.22 240.54 555.57 240.94Q554.92 241.34 554.92 242.04Q554.92 242.56 555.22 242.88Q555.52 243.21 556.11 243.44Q556.7 243.66 557.55 243.86Q558.32 244.04 559.12 244.29Q559.92 244.54 560.6 244.94Q561.27 245.34 561.69 246Q562.1 246.66 562.1 247.71Q562.1 248.86 561.52 249.74Q560.95 250.61 559.9 251.09Q558.85 251.56 557.42 251.56ZM570.52 251.56Q568.8 251.56 567.44 250.75Q566.07 249.94 565.3 248.49Q564.52 247.04 564.52 245.19Q564.52 243.34 565.29 241.9Q566.05 240.46 567.41 239.65Q568.77 238.84 570.52 238.84Q572.27 238.84 573.61 239.65Q574.95 240.46 575.72 241.9Q576.5 243.34 576.5 245.19Q576.5 247.04 575.72 248.47Q574.95 249.91 573.6 250.74Q572.25 251.56 570.52 251.56ZM570.52 249.69Q571.7 249.69 572.56 249.12Q573.42 248.56 573.9 247.55Q574.38 246.54 574.38 245.19Q574.38 243.81 573.9 242.8Q573.42 241.79 572.56 241.24Q571.7 240.69 570.52 240.69Q569.32 240.69 568.45 241.25Q567.57 241.81 567.1 242.81Q566.62 243.81 566.62 245.19Q566.62 246.54 567.1 247.55Q567.57 248.56 568.45 249.12Q569.32 249.69 570.52 249.69ZM579.52 251.36V239.04H581.65V241.66L581.15 241.84Q581.5 240.89 582.1 240.22Q582.7 239.56 583.55 239.2Q584.4 238.84 585.43 238.84Q587.45 238.84 588.6 240.02Q589.75 241.21 589.75 243.54V251.36H587.62V244.31Q587.62 242.44 586.94 241.55Q586.25 240.66 584.85 240.66Q583.83 240.66 583.11 241.14Q582.4 241.61 582.02 242.62Q581.65 243.64 581.65 245.21V251.36Z"/><path fill="#c9c3b6" d="M73.8 284.86V267.44H75.92V275.16L75.4 275.36Q75.75 274.41 76.38 273.74Q77 273.06 77.85 272.7Q78.7 272.34 79.7 272.34Q81.72 272.34 82.88 273.52Q84.03 274.71 84.03 277.04V284.86H81.9V277.81Q81.9 275.94 81.21 275.05Q80.53 274.16 79.12 274.16Q77.6 274.16 76.76 275.25Q75.92 276.34 75.92 278.71V284.86ZM95.58 284.86 95.42 282.38V277.13Q95.42 275.71 94.64 274.94Q93.85 274.16 92.3 274.16Q91.3 274.16 90.42 274.57Q89.55 274.99 88.72 275.96L87.2 274.66Q88.22 273.46 89.55 272.9Q90.88 272.34 92.45 272.34Q94.88 272.34 96.2 273.59Q97.53 274.84 97.53 277.13V284.86ZM91.5 285.06Q90.1 285.06 89.06 284.57Q88.02 284.09 87.46 283.21Q86.9 282.34 86.9 281.19Q86.9 280.16 87.31 279.45Q87.72 278.74 88.38 278.34Q89.02 277.91 89.86 277.75Q90.7 277.59 91.62 277.59H95.62V279.19H91.92Q91.38 279.19 90.78 279.28Q90.17 279.38 89.72 279.71Q89.4 279.96 89.21 280.34Q89.02 280.71 89.02 281.21Q89.02 282.19 89.75 282.76Q90.47 283.34 91.7 283.34Q92.72 283.34 93.56 282.86Q94.4 282.38 94.91 281.55Q95.42 280.71 95.42 279.66L96.3 280.56Q96.15 281.88 95.5 282.91Q94.85 283.94 93.84 284.5Q92.83 285.06 91.5 285.06ZM105.05 285.06Q103.8 285.06 102.8 284.69Q101.8 284.31 101.09 283.69Q100.38 283.06 99.95 282.36L101.42 281.11Q101.9 282.06 102.84 282.67Q103.77 283.29 105.08 283.29Q106.25 283.29 106.95 282.79Q107.65 282.29 107.65 281.44Q107.65 280.74 107.22 280.34Q106.8 279.94 106.1 279.69Q105.4 279.44 104.58 279.24Q103.88 279.06 103.16 278.81Q102.45 278.56 101.88 278.19Q101.3 277.81 100.95 277.21Q100.6 276.61 100.6 275.74Q100.6 274.21 101.79 273.27Q102.97 272.34 104.9 272.34Q106.3 272.34 107.46 272.92Q108.62 273.51 109.28 274.69L107.92 275.69Q107.42 274.81 106.61 274.42Q105.8 274.04 104.83 274.04Q103.85 274.04 103.2 274.44Q102.55 274.84 102.55 275.54Q102.55 276.06 102.85 276.38Q103.15 276.71 103.74 276.94Q104.33 277.16 105.17 277.36Q105.95 277.54 106.75 277.79Q107.55 278.04 108.22 278.44Q108.9 278.84 109.31 279.5Q109.72 280.16 109.72 281.21Q109.72 282.36 109.15 283.24Q108.58 284.11 107.53 284.59Q106.47 285.06 105.05 285.06ZM127.33 284.86 127.17 282.38V277.13Q127.17 275.71 126.39 274.94Q125.6 274.16 124.05 274.16Q123.05 274.16 122.17 274.57Q121.3 274.99 120.47 275.96L118.95 274.66Q119.97 273.46 121.3 272.9Q122.62 272.34 124.2 272.34Q126.62 272.34 127.95 273.59Q129.28 274.84 129.28 277.13V284.86ZM123.25 285.06Q121.85 285.06 120.81 284.57Q119.77 284.09 119.21 283.21Q118.65 282.34 118.65 281.19Q118.65 280.16 119.06 279.45Q119.47 278.74 120.12 278.34Q120.77 277.91 121.61 277.75Q122.45 277.59 123.38 277.59H127.38V279.19H123.67Q123.12 279.19 122.53 279.28Q121.92 279.38 121.47 279.71Q121.15 279.96 120.96 280.34Q120.77 280.71 120.77 281.21Q120.77 282.19 121.5 282.76Q122.22 283.34 123.45 283.34Q124.47 283.34 125.31 282.86Q126.15 282.38 126.66 281.55Q127.17 280.71 127.17 279.66L128.05 280.56Q127.9 281.88 127.25 282.91Q126.6 283.94 125.59 284.5Q124.58 285.06 123.25 285.06ZM132.73 289.96V272.54H134.83V276.21L134.15 275.74Q134.48 274.66 135.11 273.9Q135.75 273.13 136.68 272.74Q137.6 272.34 138.78 272.34Q140.45 272.34 141.71 273.17Q142.98 274.01 143.68 275.45Q144.38 276.88 144.38 278.71Q144.38 280.63 143.62 282.07Q142.88 283.51 141.6 284.28Q140.33 285.06 138.78 285.06Q137.6 285.06 136.68 284.63Q135.75 284.21 135.12 283.46Q134.5 282.71 134.23 281.76L134.83 281.19V289.96ZM138.43 283.13Q139.55 283.13 140.41 282.57Q141.28 282.01 141.76 281.01Q142.25 280.01 142.25 278.71Q142.25 277.41 141.76 276.41Q141.28 275.41 140.41 274.85Q139.55 274.29 138.43 274.29Q137.3 274.29 136.45 274.85Q135.6 275.41 135.12 276.41Q134.65 277.41 134.65 278.71Q134.65 280.01 135.12 281.01Q135.6 282.01 136.45 282.57Q137.3 283.13 138.43 283.13ZM147.4 289.96V272.54H149.5V276.21L148.82 275.74Q149.15 274.66 149.79 273.9Q150.42 273.13 151.35 272.74Q152.28 272.34 153.45 272.34Q155.12 272.34 156.39 273.17Q157.65 274.01 158.35 275.45Q159.05 276.88 159.05 278.71Q159.05 280.63 158.3 282.07Q157.55 283.51 156.27 284.28Q155 285.06 153.45 285.06Q152.28 285.06 151.35 284.63Q150.42 284.21 149.8 283.46Q149.17 282.71 148.9 281.76L149.5 281.19V289.96ZM153.1 283.13Q154.22 283.13 155.09 282.57Q155.95 282.01 156.44 281.01Q156.92 280.01 156.92 278.71Q156.92 277.41 156.44 276.41Q155.95 275.41 155.09 274.85Q154.22 274.29 153.1 274.29Q151.97 274.29 151.12 274.85Q150.28 275.41 149.8 276.41Q149.32 277.41 149.32 278.71Q149.32 280.01 149.8 281.01Q150.28 282.01 151.12 282.57Q151.97 283.13 153.1 283.13ZM162.07 284.86V272.54H164.2V275.84L163.65 275.96Q163.82 274.86 164.49 274.05Q165.15 273.24 166.04 272.79Q166.92 272.34 167.77 272.34Q168.35 272.34 168.87 272.46Q169.4 272.59 169.95 272.88L168.9 274.79Q168.6 274.63 168.19 274.53Q167.77 274.44 167.4 274.44Q166.8 274.44 166.21 274.66Q165.62 274.88 165.15 275.36Q164.67 275.84 164.42 276.63Q164.32 276.99 164.26 277.55Q164.2 278.11 164.2 279.09V284.86ZM176.97 285.06Q175.25 285.06 173.89 284.25Q172.53 283.44 171.75 281.99Q170.97 280.54 170.97 278.69Q170.97 276.84 171.74 275.4Q172.5 273.96 173.86 273.15Q175.22 272.34 176.97 272.34Q178.72 272.34 180.06 273.15Q181.4 273.96 182.18 275.4Q182.95 276.84 182.95 278.69Q182.95 280.54 182.18 281.97Q181.4 283.41 180.05 284.24Q178.7 285.06 176.97 285.06ZM176.97 283.19Q178.15 283.19 179.01 282.62Q179.88 282.06 180.35 281.05Q180.82 280.04 180.82 278.69Q180.82 277.31 180.35 276.3Q179.88 275.29 179.01 274.74Q178.15 274.19 176.97 274.19Q175.78 274.19 174.9 274.75Q174.03 275.31 173.55 276.31Q173.07 277.31 173.07 278.69Q173.07 280.04 173.55 281.05Q174.03 282.06 174.9 282.62Q175.78 283.19 176.97 283.19ZM189.45 284.86 184.4 272.54H186.72L190.32 282.13L193.95 272.54H196.25L191.22 284.86ZM203.5 285.06Q202.05 285.06 200.96 284.57Q199.88 284.09 199.16 283.21Q198.45 282.34 198.09 281.2Q197.72 280.06 197.72 278.79Q197.72 277.51 198.07 276.35Q198.43 275.19 199.11 274.28Q199.8 273.38 200.85 272.86Q201.9 272.34 203.3 272.34Q204.72 272.34 205.76 272.82Q206.8 273.31 207.46 274.16Q208.12 275.01 208.45 276.06Q208.78 277.11 208.78 278.24Q208.78 278.34 208.76 278.7Q208.75 279.06 208.7 279.34H199.82Q199.9 281.13 200.88 282.13Q201.85 283.13 203.53 283.13Q204.6 283.13 205.4 282.78Q206.2 282.44 206.9 281.66L208.38 282.96Q207.7 283.69 206.95 284.15Q206.2 284.61 205.36 284.84Q204.53 285.06 203.5 285.06ZM206.68 278.26Q206.72 278.06 206.74 277.86Q206.75 277.66 206.75 277.46Q206.75 276.86 206.54 276.26Q206.32 275.66 205.91 275.17Q205.5 274.69 204.86 274.4Q204.22 274.11 203.35 274.11Q202.28 274.11 201.5 274.61Q200.72 275.11 200.3 275.94Q199.88 276.76 199.8 277.76H207.38ZM216.82 285.06Q215.15 285.06 213.89 284.22Q212.62 283.38 211.93 281.94Q211.22 280.49 211.22 278.69Q211.22 276.74 211.97 275.31Q212.72 273.88 214 273.11Q215.28 272.34 216.82 272.34Q218 272.34 218.93 272.8Q219.85 273.26 220.49 274.05Q221.12 274.84 221.38 275.81L220.78 276.21V267.44H222.88V284.86H220.78V281.19L221.47 281.41Q221.15 282.49 220.5 283.31Q219.85 284.13 218.93 284.6Q218 285.06 216.82 285.06ZM217.18 283.11Q218.3 283.11 219.15 282.55Q220 281.99 220.47 280.99Q220.95 279.99 220.95 278.69Q220.95 277.38 220.47 276.38Q220 275.38 219.15 274.82Q218.3 274.26 217.18 274.26Q216.05 274.26 215.19 274.82Q214.32 275.38 213.84 276.38Q213.35 277.38 213.35 278.69Q213.35 279.99 213.84 280.99Q214.32 281.99 215.19 282.55Q216.05 283.11 217.18 283.11ZM226.43 284.86V281.96H228.93V284.86Z"/><path fill="#8f8b84" d="M78.28 340.7H77.84V338.94Q75.32 338.54 73.6 337.36L74.98 336.04Q76.06 337.3 77.84 338V331.94Q77.19 331.61 76.68 331.33Q76.18 331.04 75.67 330.63Q75.16 330.23 74.84 329.81Q74.51 329.39 74.3 328.83Q74.1 328.26 74.1 327.64Q74.09 326.17 75.13 325.27Q76.18 324.37 77.84 324.14V322.36H78.28V324.1Q79.04 324.04 79.92 324.14V322.36H80.36V324.22Q82.6 324.63 84.08 325.78L82.68 327.1Q81.78 325.97 80.36 325.3V330.74Q81.09 331.08 81.64 331.38Q82.2 331.68 82.78 332.12Q83.36 332.55 83.73 333.01Q84.1 333.46 84.33 334.06Q84.57 334.66 84.56 335.34Q84.57 336.99 83.4 337.93Q82.23 338.86 80.36 339.02V340.7H79.92V339.06Q79.09 339.06 78.28 339ZM77.84 329.56V324.66Q76.59 324.71 75.88 325.31Q75.16 325.9 75.22 326.94Q75.26 327.74 75.94 328.35Q76.61 328.96 77.84 329.56ZM79.92 330.52V325.1Q78.96 324.73 78.28 324.68V329.8Q78.58 329.94 79.16 330.19Q79.73 330.43 79.92 330.52ZM79.92 338.48V332.88Q79.66 332.76 79.1 332.52Q78.54 332.28 78.28 332.14V338.14Q79.05 338.38 79.92 338.48ZM80.36 333.1V338.48Q81.79 338.46 82.62 337.87Q83.46 337.28 83.4 336.1Q83.36 335.59 83.12 335.15Q82.88 334.72 82.44 334.35Q82.01 333.99 81.52 333.7Q81.03 333.41 80.36 333.1Z"/><path fill="#e6e1d6" d="M95.55 344.38H92.99V328.48H95.41V330.18Q95.97 329.29 96.93 328.78Q97.89 328.26 98.95 328.26Q100.36 328.26 101.47 329.05Q102.58 329.84 103.15 331.09Q103.72 332.34 103.71 333.78Q103.69 334.85 103.37 335.73Q103.05 336.61 102.54 337.21Q102.03 337.81 101.35 338.23Q100.67 338.65 99.94 338.84Q99.22 339.04 98.46 339.06Q96.78 339.06 95.55 338.04ZM98.59 338.54Q99.46 338.53 100.08 338Q100.69 337.47 100.97 336.66Q101.25 335.85 101.25 334.86Q101.25 334.1 101.09 333.34Q100.94 332.57 100.63 331.87Q100.32 331.17 99.9 330.64Q99.47 330.1 98.89 329.78Q98.31 329.46 97.65 329.46Q96.28 329.46 95.55 330.72V335.6Q95.61 336.96 96.53 337.76Q97.44 338.56 98.59 338.54ZM107.38 327.3Q106.75 327.3 106.32 326.89Q105.9 326.48 105.9 325.86Q105.9 325.24 106.32 324.82Q106.75 324.4 107.38 324.4Q107.99 324.4 108.39 324.82Q108.8 325.24 108.8 325.86Q108.8 326.48 108.39 326.89Q107.99 327.3 107.38 327.3ZM108.64 338.86H106.1V328.48H108.64ZM114.1 344.38H111.53V328.48H113.95V330.18Q114.52 329.29 115.48 328.78Q116.43 328.26 117.5 328.26Q118.9 328.26 120.01 329.05Q121.12 329.84 121.69 331.09Q122.26 332.34 122.25 333.78Q122.23 334.85 121.92 335.73Q121.6 336.61 121.09 337.21Q120.57 337.81 119.9 338.23Q119.22 338.65 118.49 338.84Q117.76 339.04 117 339.06Q115.32 339.06 114.1 338.04ZM117.14 338.54Q118.01 338.53 118.62 338Q119.24 337.47 119.51 336.66Q119.79 335.85 119.79 334.86Q119.79 334.1 119.64 333.34Q119.48 332.57 119.17 331.87Q118.87 331.17 118.44 330.64Q118.02 330.1 117.43 329.78Q116.85 329.46 116.2 329.46Q114.82 329.46 114.1 330.72V335.6Q114.16 336.96 115.07 337.76Q115.98 338.56 117.14 338.54ZM132.61 327.3Q131.97 327.3 131.55 326.89Q131.12 326.48 131.12 325.86Q131.12 325.24 131.55 324.82Q131.97 324.4 132.61 324.4Q133.21 324.4 133.62 324.82Q134.02 325.24 134.02 325.86Q134.02 326.48 133.62 326.89Q133.21 327.3 132.61 327.3ZM133.87 338.86H131.33V328.48H133.87ZM139.5 338.86H136.95V328.48H139.37V330.24Q140.23 329.38 141.46 328.83Q142.68 328.28 143.95 328.28Q144.83 328.28 145.4 328.52Q145.96 328.75 146.28 329.28Q146.59 329.8 146.71 330.48Q146.83 331.16 146.83 332.2V338.86H144.29V332.36Q144.29 331.73 144.26 331.29Q144.22 330.84 144.11 330.45Q144 330.06 143.82 329.83Q143.63 329.59 143.32 329.46Q143.02 329.32 142.6 329.32Q141.88 329.32 141.01 329.74Q140.13 330.16 139.52 330.76ZM153.36 339.06Q150.71 338.97 148.73 337.76L150.41 336.26Q151.11 337.14 152.17 337.76Q153.23 338.37 154.18 338.46Q155.22 338.55 155.88 338.15Q156.53 337.75 156.53 337.1Q156.53 336.55 156.13 336.12Q155.72 335.69 155.08 335.39Q154.43 335.1 153.66 334.83Q152.88 334.56 152.1 334.25Q151.32 333.93 150.67 333.53Q150.03 333.14 149.62 332.51Q149.22 331.88 149.22 331.08Q149.22 330.39 149.54 329.85Q149.87 329.31 150.42 328.97Q150.97 328.64 151.67 328.46Q152.36 328.28 153.13 328.28Q155.68 328.31 157.41 329.6L156.01 330.98Q155.36 330.1 154.32 329.51Q153.29 328.93 152.41 328.88Q151.51 328.83 150.92 329.26Q150.32 329.69 150.39 330.38Q150.45 330.8 150.89 331.15Q151.33 331.51 151.99 331.78Q152.64 332.04 153.43 332.31Q154.21 332.58 154.98 332.91Q155.75 333.24 156.38 333.65Q157.02 334.05 157.42 334.66Q157.81 335.27 157.81 336.02Q157.81 337.54 156.57 338.34Q155.32 339.13 153.36 339.06ZM162.52 339.06Q161.87 339.07 161.44 338.95Q161 338.83 160.75 338.62Q160.49 338.41 160.35 338.01Q160.21 337.61 160.17 337.19Q160.12 336.78 160.12 336.12V328.48H158.54V328.16H160.12V325.94H162.66V328.16H164.58V328.48H162.66V335.98Q162.66 337.24 162.76 337.63Q162.96 338.36 163.68 338.36Q164.45 338.36 165.16 337.88L165.26 338.06Q164.76 338.51 164.04 338.78Q163.31 339.06 162.52 339.06ZM169.56 339.06Q168.21 339.06 167.42 338.37Q166.63 337.68 166.6 336.54Q166.58 336.09 166.71 335.7Q166.83 335.32 167.03 335.03Q167.22 334.75 167.58 334.49Q167.94 334.22 168.25 334.05Q168.57 333.88 169.08 333.69Q169.59 333.51 169.94 333.4Q170.3 333.29 170.88 333.14Q171.56 332.96 171.77 332.9Q171.97 332.84 172.52 332.67Q173.07 332.5 173.33 332.38Q173.58 332.26 173.92 332.06Q174.26 331.87 174.46 331.64Q174.49 331.07 174.48 330.57Q174.46 330.08 174.37 329.72Q174.29 329.36 174.01 329.12Q173.74 328.88 173.26 328.82Q171.31 328.62 168.07 331.72L167.04 330.02Q169.44 328.28 172.65 328.28Q173.35 328.28 173.95 328.39Q174.56 328.49 175.12 328.73Q175.69 328.98 176.09 329.36Q176.49 329.74 176.74 330.32Q176.98 330.91 176.98 331.66V338.86H174.58V336.52Q173.51 337.75 172.15 338.4Q170.79 339.06 169.56 339.06ZM171.32 337.38Q173.25 337.38 174.44 335.92V332.26Q174.18 332.47 173.87 332.66Q173.56 332.84 173.13 333.01Q172.7 333.18 172.47 333.26Q172.23 333.34 171.68 333.51Q171.13 333.68 171.01 333.72Q169.93 334.08 169.37 334.49Q168.82 334.9 168.82 335.58Q168.86 336.43 169.55 336.9Q170.24 337.38 171.32 337.38ZM182.4 338.86H179.85V324.24L182.4 323.92ZM187.83 338.86H185.28V324.24L187.83 323.92ZM199.81 339.06Q198.46 339.06 197.67 338.37Q196.88 337.68 196.85 336.54Q196.83 336.09 196.96 335.7Q197.09 335.32 197.28 335.03Q197.48 334.75 197.83 334.49Q198.19 334.22 198.51 334.05Q198.83 333.88 199.33 333.69Q199.84 333.51 200.2 333.4Q200.55 333.29 201.13 333.14Q201.81 332.96 202.02 332.9Q202.22 332.84 202.78 332.67Q203.33 332.5 203.58 332.38Q203.84 332.26 204.17 332.06Q204.51 331.87 204.71 331.64Q204.74 331.07 204.73 330.57Q204.71 330.08 204.63 329.72Q204.54 329.36 204.27 329.12Q203.99 328.88 203.51 328.82Q201.56 328.62 198.33 331.72L197.29 330.02Q199.7 328.28 202.91 328.28Q203.6 328.28 204.21 328.39Q204.81 328.49 205.38 328.73Q205.95 328.98 206.35 329.36Q206.75 329.74 206.99 330.32Q207.23 330.91 207.23 331.66V338.86H204.83V336.52Q203.77 337.75 202.41 338.4Q201.04 339.06 199.81 339.06ZM201.57 337.38Q203.5 337.38 204.7 335.92V332.26Q204.43 332.47 204.12 332.66Q203.82 332.84 203.39 333.01Q202.96 333.18 202.72 333.26Q202.49 333.34 201.94 333.51Q201.38 333.68 201.27 333.72Q200.18 334.08 199.63 334.49Q199.07 334.9 199.07 335.58Q199.11 336.43 199.8 336.9Q200.5 337.38 201.57 337.38ZM215.09 339.06Q212.63 339.01 211.05 337.54Q209.47 336.07 209.47 333.68Q209.47 332.47 209.93 331.45Q210.39 330.43 211.17 329.74Q211.94 329.06 212.99 328.67Q214.03 328.28 215.19 328.28Q217.64 328.28 219.37 329.62L217.79 331.14Q217.75 331.09 217.66 330.99Q217.21 330.46 216.95 330.19Q216.69 329.91 216.26 329.55Q215.83 329.19 215.41 329.04Q215 328.89 214.55 328.92Q213.46 328.94 212.74 329.77Q212.02 330.6 211.93 332.1Q211.82 333.6 212.38 335Q212.94 336.4 214.05 337.3Q215.16 338.2 216.53 338.2Q217.55 338.2 218.49 337.78Q219.43 337.36 220.07 336.54L220.29 336.66Q219.53 337.81 218.13 338.44Q216.74 339.08 215.09 339.06ZM227 339.06Q224.55 339.01 222.97 337.54Q221.38 336.07 221.38 333.68Q221.38 332.47 221.84 331.45Q222.3 330.43 223.08 329.74Q223.86 329.06 224.9 328.67Q225.95 328.28 227.11 328.28Q229.56 328.28 231.29 329.62L229.71 331.14Q229.67 331.09 229.58 330.99Q229.12 330.46 228.86 330.19Q228.6 329.91 228.17 329.55Q227.74 329.19 227.33 329.04Q226.91 328.89 226.46 328.92Q225.37 328.94 224.65 329.77Q223.93 330.6 223.85 332.1Q223.74 333.6 224.29 335Q224.85 336.4 225.96 337.3Q227.08 338.2 228.45 338.2Q229.46 338.2 230.4 337.78Q231.35 337.36 231.98 336.54L232.21 336.66Q231.44 337.81 230.05 338.44Q228.65 339.08 227 339.06ZM238.99 339.06Q237.46 339.06 236.17 338.41Q234.88 337.76 234.09 336.52Q233.3 335.28 233.3 333.68Q233.3 332.47 233.76 331.45Q234.22 330.43 235 329.75Q235.78 329.07 236.82 328.68Q237.86 328.3 239.02 328.3Q240.56 328.3 241.86 328.95Q243.15 329.59 243.94 330.84Q244.73 332.08 244.73 333.68Q244.73 335.28 243.94 336.52Q243.15 337.76 241.85 338.41Q240.54 339.06 238.99 339.06ZM239.86 338.38Q240.96 338.38 241.64 337.48Q242.31 336.58 242.31 335.06Q242.31 333.59 241.76 332.17Q241.21 330.74 240.26 329.83Q239.3 328.92 238.24 328.92Q237.06 328.92 236.38 329.8Q235.7 330.69 235.7 332.1Q235.7 333.57 236.29 335.03Q236.88 336.5 237.86 337.44Q238.84 338.38 239.86 338.38ZM249.81 339.06Q248.93 339.06 248.36 338.82Q247.79 338.58 247.48 338.06Q247.17 337.54 247.04 336.85Q246.92 336.16 246.93 335.14V328.48H249.5V335Q249.49 335.78 249.55 336.3Q249.61 336.81 249.78 337.22Q249.96 337.64 250.3 337.83Q250.63 338.03 251.16 338.04Q251.89 338.05 252.76 337.63Q253.63 337.21 254.28 336.58V328.48H256.81V338.86H254.37V337.12Q253.51 337.97 252.29 338.51Q251.07 339.06 249.81 339.06ZM262.31 338.86H259.76V328.48H262.19V330.24Q263.04 329.38 264.27 328.83Q265.5 328.28 266.77 328.28Q267.64 328.28 268.21 328.52Q268.78 328.75 269.09 329.28Q269.4 329.8 269.52 330.48Q269.65 331.16 269.65 332.2V338.86H267.11V332.36Q267.11 331.73 267.07 331.29Q267.03 330.84 266.92 330.45Q266.81 330.06 266.63 329.83Q266.44 329.59 266.14 329.46Q265.83 329.32 265.41 329.32Q264.7 329.32 263.82 329.74Q262.95 330.16 262.33 330.76ZM275.02 339.06Q274.37 339.07 273.94 338.95Q273.5 338.83 273.25 338.62Q272.99 338.41 272.85 338.01Q272.71 337.61 272.67 337.19Q272.62 336.78 272.62 336.12V328.48H271.04V328.16H272.62V325.94H275.16V328.16H277.08V328.48H275.16V335.98Q275.16 337.24 275.26 337.63Q275.46 338.36 276.18 338.36Q276.95 338.36 277.66 337.88L277.76 338.06Q277.26 338.51 276.54 338.78Q275.81 339.06 275.02 339.06ZM282.06 339.06Q280.71 339.06 279.92 338.37Q279.13 337.68 279.1 336.54Q279.08 336.09 279.21 335.7Q279.33 335.32 279.53 335.03Q279.72 334.75 280.08 334.49Q280.44 334.22 280.75 334.05Q281.07 333.88 281.58 333.69Q282.09 333.51 282.44 333.4Q282.8 333.29 283.38 333.14Q284.06 332.96 284.27 332.9Q284.47 332.84 285.02 332.67Q285.57 332.5 285.83 332.38Q286.08 332.26 286.42 332.06Q286.76 331.87 286.96 331.64Q286.99 331.07 286.98 330.57Q286.96 330.08 286.87 329.72Q286.79 329.36 286.51 329.12Q286.24 328.88 285.76 328.82Q283.81 328.62 280.57 331.72L279.54 330.02Q281.94 328.28 285.15 328.28Q285.85 328.28 286.45 328.39Q287.06 328.49 287.62 328.73Q288.19 328.98 288.59 329.36Q288.99 329.74 289.24 330.32Q289.48 330.91 289.48 331.66V338.86H287.08V336.52Q286.01 337.75 284.65 338.4Q283.29 339.06 282.06 339.06ZM283.82 337.38Q285.75 337.38 286.94 335.92V332.26Q286.68 332.47 286.37 332.66Q286.06 332.84 285.63 333.01Q285.2 333.18 284.97 333.26Q284.73 333.34 284.18 333.51Q283.63 333.68 283.51 333.72Q282.43 334.08 281.87 334.49Q281.32 334.9 281.32 335.58Q281.36 336.43 282.05 336.9Q282.74 337.38 283.82 337.38ZM297.94 339.06Q296.18 339.06 294.92 337.98L294.9 338.86H292.35V323.98H294.92V330.04Q295.5 329.24 296.33 328.8Q297.17 328.36 298.09 328.3Q299.27 328.22 300.26 328.64Q301.25 329.06 301.89 329.83Q302.54 330.6 302.88 331.63Q303.23 332.66 303.21 333.78Q303.2 334.85 302.88 335.73Q302.57 336.61 302.05 337.21Q301.53 337.81 300.84 338.23Q300.15 338.65 299.43 338.84Q298.7 339.04 297.94 339.06ZM297.96 338.56Q298.66 338.55 299.21 338.22Q299.76 337.89 300.1 337.34Q300.44 336.79 300.61 336.1Q300.78 335.4 300.78 334.62Q300.78 333.67 300.54 332.76Q300.29 331.84 299.84 331.08Q299.39 330.32 298.68 329.85Q297.97 329.38 297.12 329.36Q296.55 329.34 295.97 329.64Q295.39 329.94 294.92 330.58V335.6Q294.95 336.51 295.41 337.2Q295.88 337.89 296.55 338.23Q297.21 338.56 297.96 338.56ZM307.96 338.86H305.41V324.24L307.96 323.92ZM315.84 339.06Q314.28 338.99 313.01 338.33Q311.75 337.68 310.98 336.46Q310.22 335.25 310.22 333.68Q310.22 332.08 311.01 330.84Q311.79 329.59 313.09 328.94Q314.38 328.29 315.95 328.28Q317.72 328.27 319.09 329.25Q320.47 330.22 320.53 331.5Q320.54 332.17 320.17 332.42Q319.8 332.68 318.76 332.68H313.04V332.6L316.96 332.42Q317.73 332.4 317.96 332.16Q318.18 331.92 318.16 331.38Q318.13 330.65 317.65 330.04Q317.18 329.43 316.5 329.13Q315.82 328.84 315.16 328.9Q314 328.98 313.3 329.85Q312.6 330.72 312.6 332.2Q312.6 333.58 313.18 334.91Q313.77 336.24 314.79 337.16Q315.81 338.08 316.98 338.24Q318.21 338.46 319.27 337.96Q320.33 337.46 321.04 336.54L321.28 336.66Q319.46 339.21 315.84 339.06ZM330.74 333.3H323.78V332.58H330.74ZM337.29 339.06Q334.65 338.97 332.66 337.76L334.34 336.26Q335.05 337.14 336.11 337.76Q337.17 338.37 338.11 338.46Q339.16 338.55 339.81 338.15Q340.47 337.75 340.47 337.1Q340.47 336.55 340.06 336.12Q339.66 335.69 339.01 335.39Q338.37 335.1 337.59 334.83Q336.81 334.56 336.03 334.25Q335.25 333.93 334.61 333.53Q333.96 333.14 333.56 332.51Q333.15 331.88 333.15 331.08Q333.15 330.39 333.48 329.85Q333.81 329.31 334.36 328.97Q334.91 328.64 335.6 328.46Q336.3 328.28 337.07 328.28Q339.62 328.31 341.35 329.6L339.95 330.98Q339.29 330.1 338.26 329.51Q337.22 328.93 336.35 328.88Q335.45 328.83 334.85 329.26Q334.26 329.69 334.32 330.38Q334.38 330.8 334.82 331.15Q335.26 331.51 335.92 331.78Q336.58 332.04 337.36 332.31Q338.14 332.58 338.91 332.91Q339.69 333.24 340.32 333.65Q340.96 334.05 341.35 334.66Q341.75 335.27 341.75 336.02Q341.75 337.54 340.5 338.34Q339.26 339.13 337.29 339.06ZM346.56 339.06Q345.68 339.06 345.11 338.82Q344.54 338.58 344.23 338.06Q343.91 337.54 343.79 336.85Q343.67 336.16 343.68 335.14V328.48H346.25V335Q346.24 335.78 346.3 336.3Q346.36 336.81 346.53 337.22Q346.71 337.64 347.04 337.83Q347.38 338.03 347.91 338.04Q348.64 338.05 349.51 337.63Q350.38 337.21 351.02 336.58V328.48H353.56V338.86H351.12V337.12Q350.26 337.97 349.04 338.51Q347.82 339.06 346.56 339.06ZM359.06 338.86H356.51V328.48H358.93V330.24Q359.84 329.28 361.02 328.77Q362.2 328.26 363.3 328.26Q364.47 328.29 365.12 328.8L364.2 330.56Q360.94 328.57 359.08 330.76ZM369.8 338.86H367.25V328.48H365.8V328.16H367.25V327.2Q367.25 326.38 367.5 325.76Q367.75 325.14 368.22 324.75Q368.68 324.37 369.28 324.16Q369.87 323.96 370.61 323.92Q371.59 323.86 372.66 324.12Q373.74 324.38 374.62 324.86L373.18 326.62Q373.03 326.48 372.56 325.97Q372.09 325.47 371.79 325.18Q371.49 324.9 371.09 324.65Q370.69 324.4 370.42 324.44Q370.25 324.46 370.14 324.55Q370.03 324.64 369.96 324.82Q369.89 325 369.86 325.19Q369.82 325.37 369.81 325.67Q369.8 325.97 369.8 326.19Q369.8 326.42 369.81 326.79Q369.82 327.16 369.82 327.38V328.16H371.72V328.48H369.82ZM375.86 339.06Q374.51 339.06 373.72 338.37Q372.93 337.68 372.9 336.54Q372.88 336.09 373.01 335.7Q373.13 335.32 373.33 335.03Q373.52 334.75 373.88 334.49Q374.24 334.22 374.55 334.05Q374.87 333.88 375.38 333.69Q375.89 333.51 376.24 333.4Q376.6 333.29 377.18 333.14Q377.86 332.96 378.06 332.9Q378.27 332.84 378.82 332.67Q379.37 332.5 379.63 332.38Q379.88 332.26 380.22 332.06Q380.55 331.87 380.76 331.64Q380.79 331.07 380.77 330.57Q380.76 330.08 380.67 329.72Q380.58 329.36 380.31 329.12Q380.04 328.88 379.56 328.82Q377.61 328.62 374.37 331.72L373.34 330.02Q375.74 328.28 378.95 328.28Q379.65 328.28 380.25 328.39Q380.86 328.49 381.42 328.73Q381.99 328.98 382.39 329.36Q382.79 329.74 383.04 330.32Q383.28 330.91 383.28 331.66V338.86H380.88V336.52Q379.81 337.75 378.45 338.4Q377.09 339.06 375.86 339.06ZM377.62 337.38Q379.55 337.38 380.74 335.92V332.26Q380.48 332.47 380.17 332.66Q379.86 332.84 379.43 333.01Q379 333.18 378.77 333.26Q378.53 333.34 377.98 333.51Q377.43 333.68 377.31 333.72Q376.23 334.08 375.67 334.49Q375.12 334.9 375.12 335.58Q375.15 336.43 375.85 336.9Q376.54 337.38 377.62 337.38ZM391.13 339.06Q388.68 339.01 387.1 337.54Q385.52 336.07 385.52 333.68Q385.52 332.47 385.97 331.45Q386.43 330.43 387.21 329.74Q387.99 329.06 389.03 328.67Q390.08 328.28 391.24 328.28Q393.69 328.28 395.42 329.62L393.84 331.14Q393.8 331.09 393.71 330.99Q393.25 330.46 392.99 330.19Q392.73 329.91 392.3 329.55Q391.87 329.19 391.46 329.04Q391.04 328.89 390.59 328.92Q389.5 328.94 388.78 329.77Q388.06 330.6 387.98 332.1Q387.87 333.6 388.43 335Q388.98 336.4 390.1 337.3Q391.21 338.2 392.58 338.2Q393.59 338.2 394.53 337.78Q395.48 337.36 396.11 336.54L396.34 336.66Q395.57 337.81 394.18 338.44Q392.78 339.08 391.13 339.06ZM403.04 339.06Q401.48 338.99 400.22 338.33Q398.95 337.68 398.19 336.46Q397.43 335.25 397.43 333.68Q397.43 332.08 398.22 330.84Q399 329.59 400.3 328.94Q401.59 328.29 403.15 328.28Q404.93 328.27 406.3 329.25Q407.67 330.22 407.73 331.5Q407.75 332.17 407.38 332.42Q407.01 332.68 405.96 332.68H400.25V332.6L404.17 332.42Q404.94 332.4 405.16 332.16Q405.39 331.92 405.37 331.38Q405.34 330.65 404.86 330.04Q404.38 329.43 403.7 329.13Q403.03 328.84 402.37 328.9Q401.21 328.98 400.51 329.85Q399.8 330.72 399.8 332.2Q399.8 333.58 400.39 334.91Q400.97 336.24 402 337.16Q403.02 338.08 404.19 338.24Q405.42 338.46 406.48 337.96Q407.54 337.46 408.25 336.54L408.48 336.66Q406.67 339.21 403.04 339.06Z"/><path fill="#8f8b84" d="M81.4 435.36H73.2V435.05L79.79 424.74H79.32Q75.38 424.74 73.16 425.3L73.46 424.42H81.52V424.74L74.99 435.05H75.55Q79.69 435.02 81.7 434.5ZM85.98 435.36H85.14Q85.63 434.5 86.31 432.72L89.49 424.42H90.69L94.74 435.36H93.16L91.56 431.05H87.27L86.62 432.75Q86.22 433.81 86.09 434.36Q85.96 434.91 85.98 435.36ZM89.47 425.34 87.39 430.74H91.45ZM100.4 435.36H98.91V424.42H100.4ZM106.12 435.36H105.35Q105.58 434.47 105.58 433.44V424.42H106.59L113.31 433.04V426.34Q113.31 425.4 113.05 424.42H113.85Q113.62 425.38 113.62 426.34V435.36H113.31L105.88 425.9V433.44Q105.88 434.34 106.12 435.36ZM127.76 435.36H125.02V424.42H128.28Q129.65 424.42 130.78 424.83Q131.92 425.24 132.7 425.95Q133.47 426.67 133.89 427.65Q134.32 428.64 134.32 429.79Q134.31 430.96 133.91 431.95Q133.5 432.95 132.71 433.72Q131.92 434.48 130.65 434.92Q129.38 435.36 127.76 435.36ZM126.5 424.75V435.05H127.79Q129.06 435.04 130.03 434.69Q130.99 434.35 131.59 433.73Q132.19 433.1 132.5 432.28Q132.8 431.45 132.82 430.42Q132.85 427.9 131.37 426.34Q129.89 424.78 127.48 424.75ZM138.05 435.36H137.21Q137.7 434.5 138.38 432.72L141.56 424.42H142.76L146.81 435.36H145.24L143.63 431.05H139.34L138.7 432.75Q138.29 433.81 138.16 434.36Q138.03 434.91 138.05 435.36ZM141.55 425.34 139.46 430.74H143.52ZM151.6 435.36H150.82Q151.06 434.47 151.06 433.44V424.42H152.07L158.78 433.04V426.34Q158.78 425.4 158.53 424.42H159.33Q159.1 425.38 159.1 426.34V435.36H158.78L151.36 425.9V433.44Q151.36 434.34 151.6 435.36ZM164.11 435.36H163.27Q163.76 434.5 164.44 432.72L167.62 424.42H168.82L172.87 435.36H171.29L169.69 431.05H165.4L164.75 432.75Q164.35 433.81 164.22 434.36Q164.09 434.91 164.11 435.36ZM167.6 425.34 165.51 430.74H169.58ZM185.05 435.36H183.56V424.42H185.05V429.57H190.45V424.42H191.94V435.36H190.45V429.9H185.05ZM196.77 435.36H195.93Q196.42 434.5 197.1 432.72L200.28 424.42H201.48L205.53 435.36H203.96L202.36 431.05H198.06L197.42 432.75Q197.02 433.81 196.88 434.36Q196.75 434.91 196.77 435.36ZM200.27 425.34 198.18 430.74H202.25ZM211.12 435.36H209.63V424.42H213.66Q215.84 424.42 216.89 425.55Q217.52 426.2 217.52 427.19Q217.54 428.49 216.55 429.3Q215.87 429.83 214.7 430.04Q216.58 433.43 218.02 435.36H216.16L213.14 430.12H211.12ZM211.12 424.74V429.81H213.34Q214.8 429.81 215.5 429.11Q215.77 428.86 215.92 428.44Q216.07 428.03 216.07 427.57Q216.07 426.57 215.52 425.97Q215.08 425.38 214.32 425.06Q213.57 424.74 212.57 424.74ZM223.94 435.36H222.46V424.42H226.39Q227.45 424.42 228.26 424.7Q229.08 424.98 229.55 425.47Q230.29 426.13 230.29 427.19Q230.31 428.57 229.19 429.42Q228.13 430.18 226.25 430.18H223.94ZM223.94 424.74V429.87H226.05Q227.46 429.87 228.21 429.19Q228.81 428.61 228.81 427.57Q228.81 426.44 228.15 425.76Q227.2 424.74 225.34 424.74ZM241.57 435.36H234.42V424.42H241.57L241.83 425.24Q241.28 425.02 240.66 424.94Q240.35 424.89 240.04 424.86Q239.73 424.82 239.33 424.8Q238.94 424.78 238.71 424.77Q238.47 424.75 237.97 424.75Q237.48 424.74 237.33 424.74Q237.18 424.74 236.58 424.74Q235.98 424.74 235.9 424.74V429.57Q236.06 429.57 236.57 429.57Q237.09 429.57 237.38 429.57Q237.67 429.57 238.11 429.56Q238.55 429.54 238.88 429.49Q239.38 429.43 239.62 429.3V430.17Q239.38 430.04 238.88 429.98Q238.55 429.93 238.11 429.91Q237.67 429.9 237.39 429.9Q237.1 429.9 236.58 429.9Q236.06 429.9 235.9 429.9V435.05Q236.03 435.05 236.52 435.05Q237.01 435.05 237.17 435.05Q237.34 435.05 237.77 435.04Q238.21 435.04 238.42 435.03Q238.63 435.02 239.01 435.01Q239.38 434.99 239.63 434.97Q239.88 434.94 240.18 434.91Q240.49 434.88 240.76 434.83Q241.36 434.74 241.83 434.56ZM247.81 435.36H246.32V424.42H250.34Q252.53 424.42 253.58 425.55Q254.21 426.2 254.21 427.19Q254.23 428.49 253.24 429.3Q252.56 429.83 251.39 430.04Q253.27 433.43 254.71 435.36H252.85L249.83 430.12H247.81ZM247.81 424.74V429.81H250.03Q251.49 429.81 252.19 429.11Q252.46 428.86 252.61 428.44Q252.76 428.03 252.76 427.57Q252.76 426.57 252.2 425.97Q251.76 425.38 251.01 425.06Q250.26 424.74 249.26 424.74ZM273.07 437.21H272.51Q275.34 431.32 278.15 424.62H278.71Q275.58 431.1 273.07 437.21ZM296.31 435.36H295.46Q295.95 434.5 296.63 432.72L299.81 424.42H301.01L305.06 435.36H303.49L301.89 431.05H297.59L296.95 432.75Q296.55 433.81 296.41 434.36Q296.28 434.91 296.31 435.36ZM299.8 425.34 297.71 430.74H301.78ZM317.25 435.36H315.76V424.42H322.89L323.14 425.24Q322.6 425.03 321.93 424.92Q321.62 424.88 321.31 424.85Q320.99 424.81 320.61 424.79Q320.24 424.78 319.98 424.76Q319.73 424.75 319.27 424.74Q318.8 424.74 318.63 424.74Q318.45 424.74 317.91 424.74Q317.37 424.74 317.25 424.74V429.57Q317.42 429.57 317.94 429.57Q318.47 429.57 318.76 429.57Q319.06 429.57 319.49 429.56Q319.92 429.54 320.24 429.49Q320.72 429.44 320.97 429.3V430.17Q320.72 430.03 320.23 429.98Q319.9 429.93 319.47 429.91Q319.05 429.9 318.76 429.9Q318.48 429.9 317.95 429.9Q317.42 429.9 317.25 429.9ZM334.24 435.36H327.21V424.42H328.69V435.05Q328.8 435.05 329.3 435.05Q329.8 435.05 329.94 435.05Q330.08 435.05 330.52 435.04Q330.96 435.04 331.15 435.03Q331.34 435.02 331.71 435Q332.09 434.99 332.32 434.96Q332.56 434.94 332.87 434.9Q333.18 434.86 333.45 434.82Q333.99 434.75 334.49 434.56ZM341.51 435.36H340.04V430.5L336.21 424.42H337.97L341.38 429.84L343.88 426.04Q344.25 425.49 344.43 425.12Q344.61 424.75 344.61 424.42H345.47Q344.83 425.18 344.26 426.06L341.51 430.23ZM353.69 435.36H352.48L348.82 424.42H350.38L353.65 434.22L356.2 424.42H357.37L360.05 434.33L362.51 427.03Q362.89 425.92 363.03 425.39Q363.16 424.86 363.14 424.42H363.96Q363.74 424.84 363.63 425.07Q363.52 425.3 363.3 425.84Q363.08 426.38 362.84 427.08L360.01 435.36H358.82L356.2 425.79ZM369.43 435.36H367.94V424.42H369.43V429.57H374.82V424.42H376.31V435.36H374.82V429.9H369.43ZM388.39 435.36H381.24V424.42H388.39L388.65 425.24Q388.1 425.02 387.48 424.94Q387.17 424.89 386.86 424.86Q386.55 424.82 386.16 424.8Q385.76 424.78 385.53 424.77Q385.29 424.75 384.8 424.75Q384.3 424.74 384.15 424.74Q384 424.74 383.4 424.74Q382.8 424.74 382.72 424.74V429.57Q382.88 429.57 383.39 429.57Q383.91 429.57 384.2 429.57Q384.49 429.57 384.93 429.56Q385.37 429.54 385.7 429.49Q386.2 429.43 386.44 429.3V430.17Q386.2 430.04 385.7 429.98Q385.37 429.93 384.93 429.91Q384.5 429.9 384.21 429.9Q383.92 429.9 383.4 429.9Q382.88 429.9 382.72 429.9V435.05Q382.85 435.05 383.34 435.05Q383.83 435.05 383.99 435.05Q384.16 435.05 384.6 435.04Q385.03 435.04 385.24 435.03Q385.46 435.02 385.83 435.01Q386.2 434.99 386.45 434.97Q386.7 434.94 387 434.91Q387.31 434.88 387.58 434.83Q388.18 434.74 388.65 434.56ZM400.3 435.36H393.14V424.42H400.3L400.56 425.24Q400.01 425.02 399.38 424.94Q399.08 424.89 398.77 424.86Q398.45 424.82 398.06 424.8Q397.67 424.78 397.44 424.77Q397.2 424.75 396.7 424.75Q396.21 424.74 396.06 424.74Q395.91 424.74 395.31 424.74Q394.71 424.74 394.63 424.74V429.57Q394.78 429.57 395.3 429.57Q395.82 429.57 396.11 429.57Q396.4 429.57 396.84 429.56Q397.27 429.54 397.61 429.49Q398.11 429.43 398.35 429.3V430.17Q398.11 430.04 397.61 429.98Q397.27 429.93 396.84 429.91Q396.4 429.9 396.11 429.9Q395.82 429.9 395.31 429.9Q394.79 429.9 394.63 429.9V435.05Q394.76 435.05 395.25 435.05Q395.74 435.05 395.9 435.05Q396.07 435.05 396.5 435.04Q396.94 435.04 397.15 435.03Q397.36 435.02 397.74 435.01Q398.11 434.99 398.36 434.97Q398.61 434.94 398.91 434.91Q399.22 434.88 399.49 434.83Q400.09 434.74 400.56 434.56ZM412.08 435.36H405.05V424.42H406.54V435.05Q406.64 435.05 407.14 435.05Q407.64 435.05 407.78 435.05Q407.92 435.05 408.36 435.04Q408.8 435.04 408.99 435.03Q409.18 435.02 409.56 435Q409.93 434.99 410.17 434.96Q410.41 434.94 410.71 434.9Q411.02 434.86 411.29 434.82Q411.83 434.75 412.34 434.56ZM430.42 435.36H423.39V424.42H424.87V435.05Q424.98 435.05 425.48 435.05Q425.98 435.05 426.12 435.05Q426.26 435.05 426.7 435.04Q427.14 435.04 427.33 435.03Q427.52 435.02 427.89 435Q428.26 434.99 428.5 434.96Q428.74 434.94 429.05 434.9Q429.36 434.86 429.63 434.82Q430.17 434.75 430.67 434.56ZM435.04 435.36H434.2Q434.69 434.5 435.37 432.72L438.55 424.42H439.75L443.8 435.36H442.22L440.62 431.05H436.33L435.68 432.75Q435.28 433.81 435.15 434.36Q435.02 434.91 435.04 435.36ZM438.53 425.34 436.44 430.74H440.51ZM448.59 435.36H447.81Q448.04 434.47 448.04 433.44V424.42H449.05L455.77 433.04V426.34Q455.77 425.4 455.51 424.42H456.31Q456.09 425.38 456.09 426.34V435.36H455.77L448.34 425.9V433.44Q448.34 434.34 448.59 435.36ZM468.34 435.36H461.18V424.42H468.34L468.59 425.24Q468.04 425.02 467.42 424.94Q467.11 424.89 466.8 424.86Q466.49 424.82 466.1 424.8Q465.71 424.78 465.47 424.77Q465.24 424.75 464.74 424.75Q464.24 424.74 464.09 424.74Q463.94 424.74 463.35 424.74Q462.75 424.74 462.67 424.74V429.57Q462.82 429.57 463.34 429.57Q463.85 429.57 464.14 429.57Q464.43 429.57 464.87 429.56Q465.31 429.54 465.65 429.49Q466.15 429.43 466.39 429.3V430.17Q466.15 430.04 465.65 429.98Q465.31 429.93 464.88 429.91Q464.44 429.9 464.15 429.9Q463.86 429.9 463.35 429.9Q462.83 429.9 462.67 429.9V435.05Q462.79 435.05 463.28 435.05Q463.77 435.05 463.94 435.05Q464.1 435.05 464.54 435.04Q464.98 435.04 465.19 435.03Q465.4 435.02 465.77 435.01Q466.15 434.99 466.4 434.97Q466.65 434.94 466.95 434.91Q467.25 434.88 467.52 434.83Q468.12 434.74 468.59 434.56ZM487.06 437.21H486.5Q489.33 431.32 492.14 424.62H492.7Q489.56 431.1 487.06 437.21ZM514.36 435.36H510.05V424.42H513.93Q515.81 424.42 516.79 425.13Q517.78 425.84 517.79 426.96Q517.79 427.47 517.54 427.96Q517.29 428.45 516.83 428.82Q516.35 429.18 515.62 429.43Q517.08 429.62 517.84 430.41Q518.61 431.21 518.58 432.33Q518.57 433.05 518.25 433.68Q517.92 434.31 517.27 434.72Q516.27 435.36 514.36 435.36ZM511.54 424.74V429.36H513.9Q515.25 429.36 515.92 428.72Q516.42 428.19 516.42 427.32Q516.42 426.51 515.98 425.97Q515.07 424.74 513.07 424.74ZM511.54 429.69V435.05H514.22Q515.71 435.05 516.39 434.46Q517.12 433.85 517.12 432.74Q517.12 432.12 516.89 431.58Q516.66 431.03 516.24 430.61Q515.82 430.19 515.16 429.94Q514.5 429.69 513.68 429.69ZM530.07 435.36H522.92V424.42H530.07L530.33 425.24Q529.78 425.02 529.16 424.94Q528.85 424.89 528.54 424.86Q528.23 424.82 527.84 424.8Q527.44 424.78 527.21 424.77Q526.97 424.75 526.48 424.75Q525.98 424.74 525.83 424.74Q525.68 424.74 525.08 424.74Q524.48 424.74 524.4 424.74V429.57Q524.56 429.57 525.07 429.57Q525.59 429.57 525.88 429.57Q526.17 429.57 526.61 429.56Q527.05 429.54 527.39 429.49Q527.88 429.43 528.12 429.3V430.17Q527.88 430.04 527.39 429.98Q527.05 429.93 526.61 429.91Q526.18 429.9 525.89 429.9Q525.6 429.9 525.08 429.9Q524.57 429.9 524.4 429.9V435.05Q524.53 435.05 525.02 435.05Q525.51 435.05 525.67 435.05Q525.84 435.05 526.28 435.04Q526.71 435.04 526.92 435.03Q527.14 435.02 527.51 435.01Q527.88 434.99 528.13 434.97Q528.38 434.94 528.69 434.91Q528.99 434.88 529.26 434.83Q529.86 434.74 530.33 434.56ZM539.44 435.36H537.97V424.71Q536.49 424.73 535.68 424.84Q534.87 424.94 533.91 425.3L534.21 424.42H543.25L543.55 425.3Q542.57 424.94 541.76 424.84Q540.95 424.73 539.44 424.71ZM546.45 435.36H545.6Q546.09 434.5 546.78 432.72L549.95 424.42H551.16L555.21 435.36H553.63L552.03 431.05H547.73L547.09 432.75Q546.69 433.81 546.56 434.36Q546.42 434.91 546.45 435.36ZM549.94 425.34 547.85 430.74H551.92Z"/><path fill="#8f8b84" d="M696.42 435.36H694.93V424.42H698.96Q701.14 424.42 702.19 425.55Q702.82 426.2 702.82 427.19Q702.84 428.49 701.85 429.3Q701.17 429.83 700 430.04Q701.89 433.43 703.32 435.36H701.46L698.44 430.12H696.42ZM696.42 424.74V429.81H698.64Q700.1 429.81 700.8 429.11Q701.07 428.86 701.22 428.44Q701.37 428.03 701.37 427.57Q701.37 426.57 700.82 425.97Q700.38 425.38 699.62 425.06Q698.87 424.74 697.87 424.74ZM714.91 435.36H707.76V424.42H714.91L715.17 425.24Q714.62 425.02 714 424.94Q713.69 424.89 713.38 424.86Q713.07 424.82 712.68 424.8Q712.28 424.78 712.05 424.77Q711.81 424.75 711.32 424.75Q710.82 424.74 710.67 424.74Q710.52 424.74 709.92 424.74Q709.32 424.74 709.24 424.74V429.57Q709.4 429.57 709.91 429.57Q710.43 429.57 710.72 429.57Q711.01 429.57 711.45 429.56Q711.89 429.54 712.22 429.49Q712.72 429.43 712.96 429.3V430.17Q712.72 430.04 712.22 429.98Q711.89 429.93 711.45 429.91Q711.02 429.9 710.73 429.9Q710.44 429.9 709.92 429.9Q709.4 429.9 709.24 429.9V435.05Q709.37 435.05 709.86 435.05Q710.35 435.05 710.51 435.05Q710.68 435.05 711.12 435.04Q711.55 435.04 711.76 435.03Q711.98 435.02 712.35 435.01Q712.72 434.99 712.97 434.97Q713.22 434.94 713.52 434.91Q713.83 434.88 714.1 434.83Q714.7 434.74 715.17 434.56ZM729.84 435.03 729.65 435.66Q728.69 435.57 727.65 435.54Q726.61 435.51 724.39 435.51Q723.17 435.51 722.09 435.06Q721.01 434.62 720.25 433.86Q719.49 433.1 719.05 432.07Q718.61 431.03 718.61 429.88Q718.61 428.74 719.06 427.71Q719.51 426.67 720.28 425.92Q721.04 425.16 722.12 424.72Q723.19 424.28 724.39 424.28Q725.6 424.28 726.68 424.72Q727.76 425.16 728.52 425.92Q729.27 426.68 729.72 427.72Q730.16 428.75 730.16 429.9Q730.16 431.8 729 433.29Q727.85 434.78 726.01 435.29Q727.08 435.32 729.84 435.03ZM725.12 434.99Q725.84 434.99 726.43 434.77Q727.02 434.55 727.44 434.17Q727.85 433.79 728.13 433.27Q728.41 432.75 728.54 432.15Q728.67 431.56 728.67 430.91Q728.66 429.67 728.27 428.53Q727.89 427.4 727.23 426.56Q726.56 425.71 725.62 425.23Q724.67 424.75 723.59 424.78Q722.73 424.8 722.05 425.14Q721.37 425.48 720.95 426.05Q720.53 426.62 720.31 427.35Q720.1 428.07 720.1 428.91Q720.1 430.53 720.75 431.92Q721.39 433.31 722.55 434.15Q723.71 434.99 725.12 434.99ZM738.69 435.51Q736.61 435.57 735.47 434.44Q734.33 433.31 734.33 430.99V424.42H735.81V431.19Q735.81 433.18 736.66 434.21Q737.5 435.23 739.12 435.13Q740.55 435.07 741.38 434.02Q742.21 432.96 742.21 430.98V426.34Q742.21 425.44 741.97 424.42H742.76Q742.53 425.38 742.53 426.34V430.99Q742.53 433.15 741.54 434.31Q740.56 435.48 738.69 435.51ZM754.69 435.36H747.54V424.42H754.69L754.95 425.24Q754.4 425.02 753.78 424.94Q753.47 424.89 753.16 424.86Q752.85 424.82 752.45 424.8Q752.06 424.78 751.83 424.77Q751.59 424.75 751.1 424.75Q750.6 424.74 750.45 424.74Q750.3 424.74 749.7 424.74Q749.1 424.74 749.02 424.74V429.57Q749.18 429.57 749.69 429.57Q750.21 429.57 750.5 429.57Q750.79 429.57 751.23 429.56Q751.67 429.54 752 429.49Q752.5 429.43 752.74 429.3V430.17Q752.5 430.04 752 429.98Q751.67 429.93 751.23 429.91Q750.8 429.9 750.51 429.9Q750.22 429.9 749.7 429.9Q749.18 429.9 749.02 429.9V435.05Q749.15 435.05 749.64 435.05Q750.13 435.05 750.29 435.05Q750.46 435.05 750.89 435.04Q751.33 435.04 751.54 435.03Q751.75 435.02 752.13 435.01Q752.5 434.99 752.75 434.97Q753 434.94 753.3 434.91Q753.61 434.88 753.88 434.83Q754.48 434.74 754.95 434.56ZM762.92 435.51Q761.77 435.51 760.61 435.17Q759.44 434.84 758.56 434.23L759.6 433.24Q760.34 434.14 761.59 434.65Q762.83 435.15 763.94 435.07Q764.84 434.99 765.4 434.51Q765.96 434.03 765.91 433.29Q765.88 432.85 765.62 432.47Q765.37 432.09 764.96 431.79Q764.56 431.5 764.04 431.23Q763.52 430.97 762.95 430.71Q762.39 430.45 761.82 430.19Q761.26 429.93 760.75 429.6Q760.25 429.27 759.86 428.9Q759.47 428.53 759.24 428.03Q759.01 427.53 759.01 426.94Q759.01 426.09 759.49 425.47Q759.96 424.86 760.74 424.57Q761.51 424.28 762.49 424.28Q763.5 424.28 764.53 424.58Q765.57 424.88 766.39 425.44L765.38 426.43Q764.73 425.64 763.69 425.15Q762.65 424.66 761.74 424.68Q760.86 424.7 760.32 425.16Q759.79 425.61 759.83 426.42Q759.85 426.82 760.1 427.18Q760.35 427.53 760.76 427.81Q761.16 428.09 761.69 428.35Q762.21 428.61 762.78 428.87Q763.35 429.13 763.93 429.4Q764.5 429.67 765.01 430.01Q765.52 430.34 765.92 430.72Q766.31 431.1 766.54 431.62Q766.77 432.13 766.77 432.72Q766.78 433.43 766.47 433.99Q766.17 434.54 765.63 434.87Q765.09 435.19 764.41 435.36Q763.72 435.52 762.92 435.51ZM775.5 435.36H774.04V424.71Q772.55 424.73 771.74 424.84Q770.93 424.94 769.97 425.3L770.27 424.42H779.32L779.62 425.3Q778.63 424.94 777.82 424.84Q777.02 424.73 775.5 424.71ZM797.67 437.21H797.11Q799.94 431.32 802.75 424.62H803.31Q800.17 431.1 797.67 437.21ZM820.9 435.36H820.06Q820.55 434.5 821.23 432.72L824.41 424.42H825.61L829.66 435.36H828.09L826.48 431.05H822.19L821.55 432.75Q821.14 433.81 821.01 434.36Q820.88 434.91 820.9 435.36ZM824.39 425.34 822.31 430.74H826.37ZM837.89 435.51Q835.81 435.57 834.67 434.44Q833.53 433.31 833.53 430.99V424.42H835.01V431.19Q835.01 433.18 835.86 434.21Q836.7 435.23 838.32 435.13Q839.75 435.07 840.58 434.02Q841.41 432.96 841.41 430.98V426.34Q841.41 425.44 841.17 424.42H841.96Q841.73 425.38 841.73 426.34V430.99Q841.73 433.15 840.74 434.31Q839.76 435.48 837.89 435.51ZM851.28 435.36H849.81V424.71Q848.33 424.73 847.52 424.84Q846.71 424.94 845.75 425.3L846.05 424.42H855.09L855.39 425.3Q854.41 424.94 853.6 424.84Q852.79 424.73 851.28 424.71ZM860.64 435.36H859.16V424.42H860.64V429.57H866.04V424.42H867.53V435.36H866.04V429.9H860.64ZM877.48 435.51Q876.26 435.51 875.18 435.06Q874.1 434.62 873.34 433.86Q872.58 433.1 872.14 432.07Q871.7 431.03 871.7 429.88Q871.7 428.74 872.15 427.71Q872.6 426.67 873.37 425.92Q874.13 425.16 875.21 424.72Q876.29 424.28 877.48 424.28Q878.7 424.28 879.77 424.72Q880.85 425.16 881.61 425.92Q882.36 426.68 882.81 427.72Q883.25 428.75 883.25 429.9Q883.25 431.05 882.8 432.08Q882.36 433.11 881.59 433.87Q880.82 434.62 879.75 435.06Q878.67 435.51 877.48 435.51ZM878.21 434.99Q879.11 434.95 879.8 434.61Q880.49 434.27 880.91 433.7Q881.33 433.14 881.55 432.43Q881.76 431.72 881.76 430.91Q881.75 429.92 881.5 428.97Q881.25 428.01 880.79 427.22Q880.32 426.43 879.71 425.85Q879.09 425.27 878.3 424.98Q877.52 424.7 876.68 424.78Q875.99 424.82 875.42 425.05Q874.85 425.29 874.44 425.67Q874.03 426.04 873.74 426.55Q873.46 427.06 873.32 427.65Q873.19 428.25 873.19 428.91Q873.2 430.12 873.58 431.26Q873.97 432.39 874.63 433.24Q875.29 434.09 876.23 434.57Q877.17 435.05 878.21 434.99ZM888.93 435.36H887.45V424.42H891.47Q893.65 424.42 894.7 425.55Q895.33 426.2 895.33 427.19Q895.36 428.49 894.36 429.3Q893.69 429.83 892.51 430.04Q894.4 433.43 895.83 435.36H893.97L890.95 430.12H888.93ZM888.93 424.74V429.81H891.15Q892.61 429.81 893.31 429.11Q893.58 428.86 893.73 428.44Q893.88 428.03 893.88 427.57Q893.88 426.57 893.33 425.97Q892.89 425.38 892.13 425.06Q891.38 424.74 890.38 424.74ZM901.83 435.36H900.34V424.42H901.83ZM914.2 435.36H906V435.05L912.59 424.74H912.12Q908.18 424.74 905.96 425.3L906.26 424.42H914.32V424.74L907.79 435.05H908.35Q912.49 435.02 914.5 434.5ZM925.69 435.36H918.54V424.42H925.69L925.95 425.24Q925.4 425.02 924.78 424.94Q924.47 424.89 924.16 424.86Q923.85 424.82 923.46 424.8Q923.06 424.78 922.83 424.77Q922.6 424.75 922.1 424.75Q921.6 424.74 921.45 424.74Q921.3 424.74 920.7 424.74Q920.11 424.74 920.03 424.74V429.57Q920.18 429.57 920.7 429.57Q921.21 429.57 921.5 429.57Q921.79 429.57 922.23 429.56Q922.67 429.54 923.01 429.49Q923.5 429.43 923.75 429.3V430.17Q923.5 430.04 923.01 429.98Q922.67 429.93 922.23 429.91Q921.8 429.9 921.51 429.9Q921.22 429.9 920.7 429.9Q920.19 429.9 920.03 429.9V435.05Q920.15 435.05 920.64 435.05Q921.13 435.05 921.3 435.05Q921.46 435.05 921.9 435.04Q922.33 435.04 922.54 435.03Q922.76 435.02 923.13 435.01Q923.5 434.99 923.75 434.97Q924 434.94 924.31 434.91Q924.61 434.88 924.88 434.83Q925.48 434.74 925.95 434.56ZM944.42 437.21H943.86Q946.69 431.32 949.5 424.62H950.06Q946.92 431.1 944.42 437.21ZM967.65 435.36H966.81Q967.3 434.5 967.98 432.72L971.16 424.42H972.36L976.41 435.36H974.83L973.23 431.05H968.94L968.29 432.75Q967.89 433.81 967.76 434.36Q967.63 434.91 967.65 435.36ZM971.14 425.34 969.06 430.74H973.12ZM985.54 435.51Q984.25 435.51 983.14 435.07Q982.03 434.64 981.25 433.9Q980.47 433.15 980.03 432.11Q979.59 431.07 979.58 429.88Q979.57 428.91 979.88 428.02Q980.19 427.14 980.75 426.47Q981.31 425.8 982.1 425.33Q982.89 424.86 983.81 424.67Q985.25 424.21 986.77 424.42Q988.29 424.64 989.41 425.44L988.42 426.43Q987.38 425.34 986 424.95Q984.62 424.56 983.28 425.04Q982.19 425.46 981.63 426.49Q981.07 427.52 981.07 428.91Q981.07 430.19 981.45 431.31Q981.83 432.43 982.5 433.24Q983.17 434.06 984.14 434.52Q985.11 434.99 986.24 434.99Q987.31 434.99 988.29 434.57Q989.27 434.14 989.9 433.41L990.08 433.59Q989.3 434.53 988.11 435.02Q986.92 435.51 985.54 435.51ZM998.52 435.36H997.06V424.71Q995.57 424.73 994.76 424.84Q993.95 424.94 992.99 425.3L993.29 424.42H1002.34L1002.64 425.3Q1001.65 424.94 1000.85 424.84Q1000.04 424.73 998.52 424.71ZM1020.69 437.21H1020.13Q1022.96 431.32 1025.77 424.62H1026.33Q1023.19 431.1 1020.69 437.21ZM1048.39 435.36H1047.2L1043.14 424.42H1044.71L1048.4 434.46L1051.25 427.03Q1051.66 425.95 1051.79 425.4Q1051.92 424.86 1051.88 424.42H1052.73Q1052.29 425.23 1051.58 427.08ZM1063.85 435.36H1056.69V424.42H1063.85L1064.11 425.24Q1063.56 425.02 1062.93 424.94Q1062.63 424.89 1062.31 424.86Q1062 424.82 1061.61 424.8Q1061.22 424.78 1060.99 424.77Q1060.75 424.75 1060.25 424.75Q1059.76 424.74 1059.61 424.74Q1059.45 424.74 1058.86 424.74Q1058.26 424.74 1058.18 424.74V429.57Q1058.33 429.57 1058.85 429.57Q1059.37 429.57 1059.66 429.57Q1059.95 429.57 1060.39 429.56Q1060.82 429.54 1061.16 429.49Q1061.66 429.43 1061.9 429.3V430.17Q1061.66 430.04 1061.16 429.98Q1060.82 429.93 1060.39 429.91Q1059.95 429.9 1059.66 429.9Q1059.37 429.9 1058.86 429.9Q1058.34 429.9 1058.18 429.9V435.05Q1058.3 435.05 1058.8 435.05Q1059.29 435.05 1059.45 435.05Q1059.62 435.05 1060.05 435.04Q1060.49 435.04 1060.7 435.03Q1060.91 435.02 1061.29 435.01Q1061.66 434.99 1061.91 434.97Q1062.16 434.94 1062.46 434.91Q1062.77 434.88 1063.04 434.83Q1063.64 434.74 1064.11 434.56ZM1070.09 435.36H1068.6V424.42H1072.62Q1074.8 424.42 1075.86 425.55Q1076.49 426.2 1076.49 427.19Q1076.51 428.49 1075.51 429.3Q1074.84 429.83 1073.67 430.04Q1075.55 433.43 1076.99 435.36H1075.13L1072.11 430.12H1070.09ZM1070.09 424.74V429.81H1072.31Q1073.76 429.81 1074.47 429.11Q1074.74 428.86 1074.89 428.44Q1075.04 428.03 1075.04 427.57Q1075.04 426.57 1074.48 425.97Q1074.04 425.38 1073.29 425.06Q1072.53 424.74 1071.54 424.74ZM1082.98 435.36H1081.5V424.42H1082.98ZM1089.51 435.36H1088.02V424.42H1095.15L1095.4 425.24Q1094.86 425.03 1094.19 424.92Q1093.88 424.88 1093.56 424.85Q1093.25 424.81 1092.87 424.79Q1092.5 424.78 1092.24 424.76Q1091.99 424.75 1091.53 424.74Q1091.06 424.74 1090.88 424.74Q1090.71 424.74 1090.17 424.74Q1089.62 424.74 1089.51 424.74V429.57Q1089.68 429.57 1090.2 429.57Q1090.73 429.57 1091.02 429.57Q1091.32 429.57 1091.75 429.56Q1092.18 429.54 1092.5 429.49Q1092.98 429.44 1093.23 429.3V430.17Q1092.98 430.03 1092.49 429.98Q1092.16 429.93 1091.73 429.91Q1091.31 429.9 1091.02 429.9Q1090.74 429.9 1090.21 429.9Q1089.68 429.9 1089.51 429.9ZM1103.92 435.36H1102.45V430.5L1098.62 424.42H1100.38L1103.79 429.84L1106.29 426.04Q1106.66 425.49 1106.84 425.12Q1107.02 424.75 1107.02 424.42H1107.88Q1107.24 425.18 1106.67 426.06L1103.92 430.23ZM1125.81 437.21H1125.26Q1128.08 431.32 1130.9 424.62H1131.45Q1128.32 431.1 1125.81 437.21ZM1152.14 435.51Q1149.54 435.51 1148.26 433.18L1149.38 432.55Q1149.71 433.4 1150.12 433.96Q1150.53 434.52 1151.14 434.85Q1151.76 435.18 1152.54 435.18Q1153.87 435.15 1154.49 434.27Q1155.1 433.38 1155.1 431.57V424.42H1156.58V431.02Q1156.58 432.18 1156.25 433.05Q1155.93 433.92 1155.34 434.46Q1154.74 434.99 1153.94 435.26Q1153.14 435.52 1152.14 435.51ZM1166.45 435.51Q1165.23 435.51 1164.15 435.06Q1163.08 434.62 1162.32 433.86Q1161.55 433.1 1161.11 432.07Q1160.67 431.03 1160.67 429.88Q1160.67 428.74 1161.13 427.71Q1161.58 426.67 1162.34 425.92Q1163.11 425.16 1164.18 424.72Q1165.26 424.28 1166.45 424.28Q1167.67 424.28 1168.75 424.72Q1169.82 425.16 1170.58 425.92Q1171.34 426.68 1171.78 427.72Q1172.23 428.75 1172.23 429.9Q1172.23 431.05 1171.78 432.08Q1171.33 433.11 1170.56 433.87Q1169.79 434.62 1168.72 435.06Q1167.65 435.51 1166.45 435.51ZM1167.19 434.99Q1168.08 434.95 1168.77 434.61Q1169.46 434.27 1169.89 433.7Q1170.31 433.14 1170.52 432.43Q1170.74 431.72 1170.73 430.91Q1170.72 429.92 1170.47 428.97Q1170.23 428.01 1169.76 427.22Q1169.3 426.43 1168.68 425.85Q1168.07 425.27 1167.28 424.98Q1166.49 424.7 1165.66 424.78Q1164.97 424.82 1164.4 425.05Q1163.82 425.29 1163.41 425.67Q1163 426.04 1162.72 426.55Q1162.43 427.06 1162.3 427.65Q1162.16 428.25 1162.16 428.91Q1162.17 430.12 1162.56 431.26Q1162.95 432.39 1163.6 433.24Q1164.26 434.09 1165.21 434.57Q1166.15 435.05 1167.19 434.99ZM1180.76 435.51Q1178.68 435.57 1177.53 434.44Q1176.39 433.31 1176.39 430.99V424.42H1177.88V431.19Q1177.88 433.18 1178.72 434.21Q1179.57 435.23 1181.19 435.13Q1182.62 435.07 1183.45 434.02Q1184.28 432.96 1184.28 430.98V426.34Q1184.28 425.44 1184.04 424.42H1184.82Q1184.59 425.38 1184.59 426.34V430.99Q1184.59 433.15 1183.61 434.31Q1182.62 435.48 1180.76 435.51ZM1191.09 435.36H1189.6V424.42H1193.62Q1195.81 424.42 1196.86 425.55Q1197.49 426.2 1197.49 427.19Q1197.51 428.49 1196.52 429.3Q1195.84 429.83 1194.67 430.04Q1196.55 433.43 1197.99 435.36H1196.13L1193.11 430.12H1191.09ZM1191.09 424.74V429.81H1193.31Q1194.77 429.81 1195.47 429.11Q1195.74 428.86 1195.89 428.44Q1196.04 428.03 1196.04 427.57Q1196.04 426.57 1195.48 425.97Q1195.04 425.38 1194.29 425.06Q1193.53 424.74 1192.54 424.74ZM1203.11 435.36H1202.34Q1202.57 434.47 1202.57 433.44V424.42H1203.58L1210.3 433.04V426.34Q1210.3 425.4 1210.04 424.42H1210.84Q1210.61 425.38 1210.61 426.34V435.36H1210.3L1202.87 425.9V433.44Q1202.87 434.34 1203.11 435.36ZM1215.62 435.36H1214.78Q1215.27 434.5 1215.95 432.72L1219.13 424.42H1220.33L1224.38 435.36H1222.81L1221.2 431.05H1216.91L1216.26 432.75Q1215.86 433.81 1215.73 434.36Q1215.6 434.91 1215.62 435.36ZM1219.11 425.34 1217.03 430.74H1221.09ZM1235.51 435.36H1228.48V424.42H1229.97V435.05Q1230.07 435.05 1230.57 435.05Q1231.07 435.05 1231.21 435.05Q1231.35 435.05 1231.79 435.04Q1232.23 435.04 1232.42 435.03Q1232.61 435.02 1232.98 435Q1233.36 434.99 1233.6 434.96Q1233.83 434.94 1234.14 434.9Q1234.45 434.86 1234.72 434.82Q1235.26 434.75 1235.77 434.56Z"/></svg>
